<svg preserveAspectRatio="xMidYMid meet" width="80" height="76" overflow="visible" style="display: block;" viewBox="0 0 80.0021 76.0675" fill="none" xmlns="http://www.w3.org/2000/svg">
<g id="Layer 1">
<path id="Vector" d="M65.2522 25.2511C65.2522 11.3053 53.9469 1.14441e-05 40.0011 1.14441e-05C26.0553 1.14441e-05 14.75 11.3053 14.75 25.2511C14.75 39.1969 26.0553 50.5022 40.0011 50.5022C53.9469 50.5022 65.2522 39.1969 65.2522 25.2511Z" fill="var(--fill-0, #01B73E)"/>
<path id="Vector_2" d="M30.1012 20.748C30.1012 20.748 26.8875 19.6175 25.0625 22.3932C25.0606 22.3932 28.5843 23.3956 30.1012 20.748Z" fill="var(--fill-0, white)"/>
<path id="Vector_3" d="M42.4278 18.8944C40.5308 18.8685 38.6994 19.5884 37.3279 20.8992C37.1283 20.6491 36.9136 20.4115 36.6851 20.1875C36.2227 19.7256 35.681 19.3504 35.0859 19.0799V20.1646C34.8681 19.5291 34.4844 18.9635 33.9745 18.5262C33.4646 18.089 32.8471 17.796 32.1858 17.6777C32.1858 17.6777 32.0825 18.8408 32.3389 19.3382C31.9113 18.6557 31.3233 18.0881 30.6261 17.685C29.9289 17.2819 29.1437 17.0555 28.3389 17.0254C28.3389 17.0254 28.8515 20.2411 30.9328 20.6218C30.9328 20.6218 30.051 21.8805 29.2953 22.3301C29.2873 22.3339 29.2809 22.3404 29.2771 22.3485C29.2734 22.3566 29.2726 22.3657 29.2748 22.3743C29.2771 22.3829 29.2823 22.3905 29.2895 22.3957C29.2968 22.4009 29.3056 22.4034 29.3145 22.4028C30.3075 22.3996 31.2945 22.5566 32.2375 22.8676L32.3312 22.8944C33.0072 23.1218 33.6146 23.5167 34.0969 24.0422C34.6708 24.7213 35.084 25.7485 35.084 27.3057V33.8097C35.0837 34.0724 35.1352 34.3326 35.2356 34.5753C35.3359 34.8181 35.4831 35.0387 35.6688 35.2245C35.8544 35.4103 36.0749 35.5578 36.3176 35.6583C36.5602 35.7589 36.8203 35.8107 37.083 35.8107H38.7798C38.8733 35.8102 38.9629 35.7727 39.0288 35.7064C39.0948 35.64 39.1318 35.5503 39.1318 35.4568V26.2076C39.1187 25.7808 39.191 25.3556 39.3446 24.9571C39.4981 24.5586 39.7298 24.1948 40.0259 23.8871C40.3221 23.5795 40.6767 23.3341 41.0691 23.1654C41.4614 22.9968 41.8835 22.9082 42.3106 22.9051C42.7376 22.9019 43.161 22.9841 43.5558 23.1469C43.9506 23.3096 44.3089 23.5497 44.6096 23.8529C44.9103 24.1562 45.1474 24.5164 45.3069 24.9126C45.4664 25.3088 45.545 25.7328 45.5383 26.1598V33.8116C45.5383 34.3423 45.7491 34.8513 46.1244 35.2265C46.4996 35.6018 47.0086 35.8126 47.5392 35.8126H49.2475C49.2939 35.8126 49.3398 35.8034 49.3827 35.7856C49.4255 35.7678 49.4644 35.7417 49.4971 35.7088C49.5298 35.6759 49.5557 35.6369 49.5733 35.594C49.5908 35.5511 49.5998 35.5051 49.5995 35.4587V26.2268C49.5919 22.2841 46.3685 18.9384 42.4278 18.8944Z" fill="var(--fill-0, white)"/>
<path id="Vector_4" d="M31.3271 19.6902L31.4031 19.7136Z" fill="var(--fill-0, white)"/>
<path id="Vector_5" d="M25.4618 18.5195C25.4618 18.5195 25.831 16.245 23.7401 15.6213C23.7477 15.6213 23.4168 18.0145 25.4618 18.5195Z" fill="var(--fill-0, white)"/>
<path id="Vector_6" d="M22.3262 19.4874C22.3262 19.4874 24.6504 21.8709 27.2444 19.9924C27.2444 19.9924 25.4615 18.1732 22.3262 19.4874Z" fill="var(--fill-0, white)"/>
<path id="Vector_7" d="M28.3823 19.8604C28.3823 19.8604 28.6463 17.0254 25.7539 16.2602C25.7539 16.2602 25.7788 18.8771 28.3823 19.8604Z" fill="var(--fill-0, white)"/>
<path id="Vector_8" d="M23.6628 18.6763C23.6628 18.6763 24.3764 16.0192 21.0134 14.682C21.0134 14.682 20.1832 17.5993 23.6628 18.6763Z" fill="var(--fill-0, white)"/>
<path id="Vector_9" d="M22.9353 18.9039C22.9353 18.9039 22.5929 18.2726 21.7148 18.6265C21.7148 18.6265 22.084 19.3209 22.9353 18.9039Z" fill="var(--fill-0, white)"/>
<path id="Vector_10" opacity="0.1" d="M45.5469 30.7261C45.5469 30.7261 45.5871 33.234 49.2179 35.8203H49.2428C49.3361 35.8203 49.4257 35.7832 49.4917 35.7172C49.5577 35.6512 49.5948 35.5617 49.5948 35.4683V33.2435L45.5469 30.7261Z" fill="var(--fill-0, white)"/>
<path id="Vector_11" opacity="0.1" d="M49.5867 29.5687V27.3267L45.7207 24.0134C45.7207 24.0134 45.4012 27.4701 49.5867 29.5687Z" fill="var(--fill-0, white)"/>
<path id="Vector_12" d="M52.8543 35.8202C51.9349 35.8272 51.0196 35.6983 50.1379 35.4377C49.341 35.2067 48.5911 34.837 47.9227 34.3454C47.2902 33.8743 46.75 33.2907 46.3292 32.6237C45.9682 32.0496 45.7021 31.4211 45.541 30.7624C45.5288 30.713 45.528 30.6616 45.5387 30.6119C45.5493 30.5622 45.5711 30.5156 45.6025 30.4756C45.6338 30.4356 45.6739 30.4032 45.7196 30.381C45.7653 30.3588 45.8154 30.3472 45.8662 30.3473H49.0532C49.1238 30.3475 49.1925 30.3699 49.2495 30.4115C49.3066 30.4531 49.349 30.5116 49.3708 30.5787C49.5625 31.1822 49.9573 31.7006 50.488 32.046C51.0937 32.4515 51.8825 32.6543 52.8543 32.6543C53.5429 32.6543 54.0881 32.507 54.4937 32.2143C54.6869 32.0809 54.8436 31.9013 54.9495 31.6918C55.0554 31.4822 55.1072 31.2496 55.1001 31.0149C55.0986 30.8416 55.0599 30.6706 54.9867 30.5135C54.9134 30.3564 54.8073 30.2169 54.6754 30.1043C54.3473 29.8194 53.9525 29.622 53.5276 29.5304L50.1895 28.7404C47.2104 28.0581 45.7209 26.4825 45.7209 24.0135C45.7114 23.292 45.8617 22.5773 46.1608 21.9207C46.4484 21.301 46.8683 20.7519 47.3909 20.3119C47.9451 19.8499 48.5837 19.4997 49.2713 19.2808C50.0556 19.0291 50.8753 18.9058 51.6989 18.9154C52.5846 18.9087 53.4658 19.0417 54.31 19.3095C55.0797 19.5527 55.7991 19.9332 56.4334 20.4324C57.0406 20.918 57.5545 21.5098 57.9504 22.1789C58.2919 22.7537 58.535 23.3815 58.6697 24.0364C58.6796 24.0852 58.6785 24.1356 58.6666 24.184C58.6547 24.2324 58.6322 24.2775 58.6007 24.3161C58.5692 24.3547 58.5296 24.3859 58.4846 24.4073C58.4396 24.4287 58.3905 24.4399 58.3407 24.44H55.1077C55.0378 24.4403 54.9696 24.4184 54.9129 24.3775C54.8562 24.3366 54.8139 24.2788 54.7921 24.2124C54.5976 23.6169 54.2225 23.0968 53.7189 22.7241C53.1278 22.2844 52.4067 22.0549 51.6702 22.0718C51.1531 22.0437 50.6428 22.1996 50.2297 22.5118C50.0591 22.6475 49.9223 22.8209 49.83 23.0184C49.7377 23.2159 49.6925 23.4321 49.6979 23.65C49.6979 24.4407 50.3253 24.9872 51.5803 25.2894L54.6754 26.0163C57.6086 26.705 59.0752 28.273 59.0752 30.7203C59.0868 31.4394 58.9309 32.1512 58.6199 32.7997C58.3149 33.4207 57.8805 33.9693 57.3459 34.4085C56.7633 34.883 56.0932 35.2386 55.3736 35.4549C54.5576 35.7051 53.7078 35.8283 52.8543 35.8202Z" fill="var(--fill-0, white)"/>
<path id="Vector_13" d="M4.36083 59.5409C4.11837 59.3608 3.82074 59.2708 3.51912 59.2865C3.29526 59.2835 3.0722 59.3138 2.85724 59.3764C2.66346 59.4331 2.47572 59.5087 2.29674 59.6021V64.924C2.15876 64.9621 2.01806 64.9895 1.87589 65.0062C1.67678 65.0327 1.47608 65.0454 1.27522 65.0445C0.823763 65.0445 0.497922 64.9718 0.297699 64.8264C0.097476 64.681 -0.0013603 64.3979 0.00119031 63.977V59.3305C-0.00882786 59.1083 0.0485154 58.8882 0.165705 58.6992C0.293485 58.5224 0.451502 58.3695 0.632467 58.2477C1.01078 57.9918 1.43095 57.8041 1.87398 57.693C2.42035 57.5467 2.98416 57.4759 3.54973 57.4825C4.64267 57.4825 5.48692 57.7229 6.08249 58.2037C6.67806 58.6845 6.97648 59.3694 6.97776 60.2582V64.9182C6.83424 64.9548 6.68857 64.9822 6.5416 65.0005C6.34249 65.0269 6.14179 65.0397 5.94093 65.0387C5.48947 65.0387 5.16618 64.966 4.97106 64.8207C4.77976 64.6753 4.67646 64.3922 4.67646 63.9713V60.3175C4.68628 60.1726 4.66296 60.0274 4.60827 59.8928C4.55358 59.7582 4.46896 59.6379 4.36083 59.5409Z" fill="var(--fill-0, black)"/>
<path id="Vector_14" d="M11.5929 57.4826C12.0706 57.4773 12.5473 57.53 13.0123 57.6394C13.4043 57.7288 13.7748 57.8946 14.1027 58.1272C14.4014 58.3471 14.6417 58.6368 14.8029 58.9708C14.9751 59.3474 15.0595 59.7582 15.0496 60.1722V63.5715C15.0616 63.7973 14.9894 64.0196 14.8469 64.1951C14.7068 64.3532 14.5421 64.4876 14.359 64.593C14.0034 64.8014 13.6155 64.9488 13.2113 65.0292C12.7081 65.1346 12.195 65.1852 11.6809 65.1803C10.6479 65.1803 9.82597 64.982 9.2151 64.5854C8.60422 64.1888 8.29815 63.5849 8.29688 62.7738C8.29688 62.0832 8.50347 61.5552 8.91476 61.1956C9.32605 60.836 9.95732 60.6083 10.8086 60.5184L12.8172 60.308V60.1435C12.8254 60.0016 12.794 59.8603 12.7264 59.7352C12.6589 59.6102 12.5578 59.5065 12.4346 59.4357C12.0837 59.2658 11.6952 59.1881 11.306 59.21C10.9288 59.2099 10.5531 59.2555 10.1869 59.3458C9.84453 59.4251 9.50877 59.5307 9.18258 59.6614C9.0528 59.5688 8.94824 59.4451 8.87842 59.3018C8.79316 59.1369 8.74918 58.9537 8.75025 58.7681C8.75025 58.3268 8.98108 58.008 9.44274 57.8116C9.77086 57.6932 10.1108 57.6104 10.4566 57.5648C10.8329 57.5104 11.2127 57.4829 11.5929 57.4826ZM11.6828 63.4797C11.9026 63.4803 12.1219 63.4579 12.337 63.4127C12.5082 63.3834 12.6732 63.3252 12.8249 63.2406V61.8575L11.5929 61.9627C11.3216 61.9768 11.0569 62.0513 10.8182 62.1808C10.725 62.2306 10.6478 62.3057 10.5954 62.3974C10.543 62.4891 10.5174 62.5937 10.5216 62.6992C10.517 62.8095 10.5391 62.9193 10.5861 63.0192C10.6331 63.1192 10.7035 63.2063 10.7914 63.2731C10.975 63.4108 11.2715 63.4797 11.6828 63.4797Z" fill="var(--fill-0, black)"/>
<path id="Vector_15" d="M19.2911 63.1564C19.5163 63.2956 19.7787 63.3624 20.0429 63.3477C20.2044 63.3468 20.3654 63.3288 20.5231 63.2942C20.6724 63.2663 20.8186 63.2234 20.9592 63.166C21.0514 63.2695 21.1274 63.3862 21.185 63.5123C21.2805 63.7371 21.3007 63.9869 21.2424 64.2241C21.1841 64.4614 21.0505 64.6734 20.8617 64.8284C20.5862 65.0541 20.1073 65.167 19.425 65.167C18.5833 65.167 17.9272 64.9757 17.4566 64.5931C16.986 64.2105 16.7501 63.5818 16.7488 62.7069V55.9484C16.8598 55.9178 17.0052 55.8853 17.185 55.8508C17.3785 55.8137 17.5752 55.7958 17.7722 55.7973C18.2122 55.7973 18.5374 55.8757 18.7287 56.0307C18.92 56.1856 19.0214 56.4687 19.0214 56.88V57.8575H21.097C21.1561 57.9812 21.206 58.1091 21.2462 58.2401C21.2978 58.3982 21.3236 58.5636 21.3227 58.7299C21.3346 58.8537 21.3215 58.9787 21.284 59.0974C21.2465 59.216 21.1855 59.3259 21.1046 59.4204C21.0282 59.4926 20.938 59.5485 20.8393 59.5846C20.7407 59.6208 20.6357 59.6365 20.5307 59.6309H19.0195V62.5539C19.0101 62.6691 19.03 62.7848 19.0776 62.8902C19.1251 62.9956 19.1986 63.0872 19.2911 63.1564Z" fill="var(--fill-0, black)"/>
<path id="Vector_16" d="M28.9576 64.5184C28.5895 64.7386 28.1884 64.8981 27.7697 64.9909C27.2577 65.1121 26.7329 65.1705 26.2068 65.165C25.7103 65.1708 25.2152 65.1123 24.7338 64.9909C24.3208 64.8894 23.9337 64.7024 23.5975 64.4419C23.2796 64.1899 23.027 63.8651 22.861 63.495C22.6755 63.0581 22.5861 62.5864 22.5989 62.1119V57.737C22.7427 57.6997 22.8883 57.6697 23.0351 57.6471C23.2337 57.615 23.4346 57.5996 23.6358 57.6011C24.0872 57.6011 24.4009 57.6777 24.6056 57.8269C24.8103 57.9761 24.8983 58.263 24.8983 58.6839V62.0966C24.8983 62.5481 25.0137 62.8714 25.2446 63.0665C25.5249 63.2781 25.8715 63.3826 26.2221 63.3611C26.4422 63.3655 26.662 63.3424 26.8763 63.2922C27.0142 63.2613 27.1478 63.2138 27.2742 63.1506V57.737C27.6077 57.646 27.952 57.6003 28.2976 57.6011C28.7472 57.6011 29.0743 57.6777 29.2733 57.8269C29.4722 57.9761 29.5755 58.263 29.5755 58.6839V63.4357C29.5819 63.6555 29.5276 63.8728 29.4186 64.0638C29.3096 64.2548 29.1501 64.4121 28.9576 64.5184Z" fill="var(--fill-0, black)"/>
<path id="Vector_17" d="M33.5587 64.9239C33.4207 64.962 33.28 64.9895 33.1379 65.0062C32.9388 65.0326 32.7381 65.0454 32.5372 65.0444C32.0857 65.0444 31.7599 64.9717 31.5597 64.8264C31.3595 64.681 31.2593 64.3979 31.2593 63.977V59.3859C31.2516 59.1287 31.3253 58.8757 31.4698 58.6628C31.626 58.4485 31.8254 58.2693 32.0551 58.1367C32.428 57.9207 32.8309 57.7614 33.2507 57.6642C33.7304 57.5473 34.2224 57.4889 34.7161 57.4902C35.758 57.4902 36.2796 57.8415 36.2809 58.5442C36.2829 58.7023 36.2576 58.8595 36.2063 59.0091C36.1625 59.1346 36.1068 59.2557 36.0398 59.3706C35.7631 59.3185 35.4816 59.2954 35.2 59.3017C34.9061 59.3018 34.6132 59.3371 34.3277 59.4069C34.0611 59.4674 33.8037 59.5632 33.5625 59.692L33.5587 64.9239Z" fill="var(--fill-0, black)"/>
<path id="Vector_18" d="M40.0695 57.4826C40.5472 57.4773 41.0238 57.53 41.4889 57.6394C41.8809 57.7288 42.2514 57.8946 42.5793 58.1272C42.8779 58.3471 43.1183 58.6368 43.2794 58.9708C43.4517 59.3474 43.536 59.7582 43.5262 60.1722V63.5715C43.5382 63.7973 43.4659 64.0196 43.3234 64.1951C43.1834 64.3532 43.0186 64.4876 42.8356 64.593C42.48 64.8014 42.0921 64.9488 41.6878 65.0292C41.1846 65.1346 40.6715 65.1852 40.1575 65.1803C39.1245 65.1803 38.3025 64.982 37.6917 64.5854C37.0808 64.1888 36.7747 63.5849 36.7734 62.7738C36.7734 62.0832 36.98 61.5552 37.3913 61.1956C37.8026 60.836 38.4339 60.6083 39.2852 60.5184L41.2842 60.308V60.1435C41.2924 60.0016 41.261 59.8603 41.1934 59.7352C41.1259 59.6102 41.0248 59.5065 40.9016 59.4357C40.5507 59.2658 40.1622 59.1881 39.773 59.21C39.3958 59.2099 39.02 59.2555 38.6539 59.3458C38.318 59.4261 37.9887 59.5316 37.6687 59.6614C37.5365 59.5671 37.4305 59.4407 37.3607 59.2941C37.2755 59.1292 37.2315 58.9461 37.2325 58.7604C37.2325 58.3192 37.4634 58.0003 37.925 57.8039C38.2532 57.6855 38.5931 57.6028 38.9389 57.5572C39.3135 57.5056 39.6913 57.4806 40.0695 57.4826ZM40.1594 63.4797C40.3792 63.4803 40.5985 63.4579 40.8136 63.4127C40.9848 63.3834 41.1498 63.3252 41.3014 63.2406V61.8575L40.0695 61.9627C39.7982 61.9768 39.5335 62.0513 39.2947 62.1808C39.2023 62.2312 39.1259 62.3065 39.0742 62.3981C39.0224 62.4897 38.9974 62.5941 39.002 62.6992C38.9974 62.8095 39.0195 62.9193 39.0665 63.0192C39.1134 63.1192 39.1839 63.2063 39.2718 63.2731C39.4516 63.4108 39.7481 63.4797 40.1594 63.4797Z" fill="var(--fill-0, black)"/>
<path id="Vector_19" d="M46.5486 65.0406C46.0972 65.0406 45.7739 64.9679 45.5787 64.8225C45.3836 64.6772 45.2861 64.394 45.2861 63.9732V55.1506C45.4271 55.1128 45.5702 55.0828 45.7146 55.0607C45.9158 55.0296 46.1193 55.0149 46.3229 55.0167C46.7648 55.0167 47.0881 55.0913 47.2794 55.2405C47.4707 55.3897 47.5797 55.6767 47.5797 56.0975V64.9239C47.4363 64.9608 47.2906 64.9883 47.1435 65.0062C46.9462 65.0311 46.7475 65.0426 46.5486 65.0406Z" fill="var(--fill-0, black)"/>
<path id="Vector_20" d="M55.2855 62.8197C55.3 63.1544 55.2322 63.4876 55.0882 63.7901C54.9441 64.0925 54.7281 64.3551 54.4591 64.5548C53.9082 64.9718 53.0965 65.1803 52.0239 65.1803C51.6394 65.1832 51.2553 65.1525 50.8762 65.0885C50.5667 65.0405 50.2654 64.9497 49.9809 64.8188C49.7531 64.7154 49.5521 64.5609 49.3936 64.3673C49.2535 64.1871 49.1792 63.9643 49.1832 63.736C49.1779 63.5392 49.2247 63.3445 49.319 63.1717C49.405 63.0204 49.5232 62.8898 49.6652 62.7891C49.981 62.9711 50.3134 63.1223 50.6581 63.2406C51.0746 63.3766 51.5112 63.4413 51.9493 63.4319C52.6609 63.4319 53.0187 63.231 53.0187 62.8312C53.0225 62.755 53.007 62.6791 52.9735 62.6105C52.9401 62.5419 52.8898 62.4829 52.8274 62.4391C52.6307 62.3208 52.4142 62.2391 52.1884 62.198L51.5878 62.0641C50.7652 61.8945 50.1537 61.6312 49.7532 61.2741C49.5492 61.0843 49.3896 60.8518 49.2858 60.5932C49.182 60.3346 49.1365 60.0563 49.1526 59.7781C49.1429 59.4463 49.217 59.1174 49.3682 58.8218C49.5193 58.5262 49.7425 58.2735 50.0172 58.0871C50.5924 57.67 51.3665 57.4622 52.3396 57.4635C52.6818 57.4616 53.0236 57.4892 53.3611 57.5457C53.6473 57.5903 53.926 57.6739 54.1894 57.7944C54.4007 57.889 54.5877 58.0303 54.7365 58.2076C54.8708 58.3685 54.9433 58.5719 54.9412 58.7815C54.9451 58.9579 54.9077 59.1329 54.8319 59.2923C54.7562 59.4517 54.6443 59.5912 54.505 59.6997C54.3919 59.6345 54.2735 59.5788 54.1511 59.5333C53.9962 59.474 53.8279 59.4185 53.648 59.3688C53.4592 59.3175 53.2676 59.2772 53.0741 59.2482C52.89 59.219 52.7039 59.2036 52.5175 59.2023C52.2373 59.1891 51.9577 59.2381 51.6987 59.3458C51.6124 59.3794 51.5383 59.4383 51.486 59.5147C51.4338 59.5912 51.4059 59.6817 51.406 59.7743C51.4033 59.8389 51.4169 59.9031 51.4457 59.961C51.4745 60.0188 51.5174 60.0685 51.5706 60.1052C51.756 60.215 51.9594 60.2914 52.1712 60.331L52.7451 60.4668C53.6582 60.6657 54.3099 60.9559 54.7002 61.3372C54.8955 61.53 55.0485 61.7614 55.1493 62.0167C55.2501 62.272 55.2965 62.5455 55.2855 62.8197Z" fill="var(--fill-0, black)"/>
<path id="Vector_21" d="M58.6526 62.2784C58.7075 62.4699 58.8012 62.648 58.9279 62.8017C59.0546 62.9553 59.2116 63.0813 59.3891 63.1718C59.7683 63.3541 60.1851 63.4445 60.6057 63.4357C61.0083 63.4388 61.4089 63.3801 61.7937 63.2617C62.1088 63.1705 62.4119 63.0421 62.6966 62.8791C62.8495 62.9785 62.9798 63.1088 63.0792 63.2617C63.1794 63.4194 63.2319 63.6028 63.2303 63.7896C63.2339 64.0085 63.1592 64.2215 63.0199 64.3903C62.8627 64.5739 62.6667 64.7202 62.446 64.8188C62.1683 64.9437 61.8748 65.03 61.5737 65.0751C61.2085 65.1316 60.8394 65.1591 60.4699 65.1574C59.9136 65.1631 59.3601 65.0792 58.8305 64.9087C58.3525 64.7567 57.9119 64.5058 57.5373 64.1722C57.1664 63.8319 56.8762 63.4129 56.688 62.946C56.4728 62.398 56.3682 61.8129 56.38 61.2244C56.3669 60.6524 56.4717 60.084 56.688 59.5543C56.8762 59.1087 57.158 58.7088 57.5144 58.3817C57.858 58.0727 58.2627 57.8393 58.7023 57.6969C59.1467 57.5533 59.6108 57.4804 60.0778 57.4807C60.5564 57.4747 61.0323 57.553 61.4838 57.7122C61.889 57.8564 62.2621 58.0787 62.5818 58.3664C62.8884 58.6481 63.1316 58.9917 63.2954 59.3745C63.4686 59.7781 63.5558 60.2133 63.5517 60.6524C63.5616 60.7838 63.5439 60.9159 63.4998 61.0401C63.4557 61.1643 63.386 61.2779 63.2954 61.3736C63.092 61.5487 62.8408 61.6586 62.5742 61.6892L58.6526 62.2784ZM60.0797 59.1813C59.6831 59.1684 59.2972 59.3112 59.0046 59.5792C58.7005 59.8863 58.5212 60.2953 58.5015 60.727L61.3709 60.2621C61.3422 59.9474 61.1901 59.6568 60.9478 59.4539C60.7055 59.251 60.3926 59.1523 60.0778 59.1794L60.0797 59.1813Z" fill="var(--fill-0, black)"/>
<path id="Vector_22" d="M66.8151 62.2783C66.8706 62.4695 66.9646 62.6473 67.0913 62.801C67.2179 62.9546 67.3745 63.0807 67.5516 63.1717C67.9315 63.354 68.3489 63.4444 68.7702 63.4357C69.1727 63.4387 69.5733 63.38 69.9581 63.2616C70.2732 63.1705 70.5763 63.042 70.861 62.879C71.0139 62.9784 71.1442 63.1087 71.2436 63.2616C71.343 63.4197 71.3954 63.6028 71.3947 63.7896C71.3983 64.0085 71.3237 64.2214 71.1843 64.3903C71.0267 64.5734 70.8308 64.7197 70.6104 64.8188C70.3327 64.9437 70.0392 65.0299 69.7381 65.0751C69.3723 65.1316 69.0026 65.1591 68.6324 65.1573C68.0768 65.1631 67.5238 65.0791 66.9949 64.9087C66.517 64.7566 66.0764 64.5057 65.7018 64.1722C65.3302 63.8323 65.0399 63.4133 64.8524 62.946C64.6364 62.3982 64.5317 61.813 64.5444 61.2243C64.5304 60.6523 64.6352 60.0836 64.8524 59.5543C65.0399 59.1083 65.3218 58.7082 65.6788 58.3816C66.0224 58.0726 66.4271 57.8393 66.8668 57.6968C67.3111 57.5533 67.7752 57.4803 68.2422 57.4806C68.7158 57.4774 69.1863 57.5563 69.6329 57.714C70.0381 57.8583 70.4112 58.0805 70.7309 58.3683C71.0375 58.6499 71.2807 58.9936 71.4445 59.3764C71.6177 59.7799 71.705 60.2151 71.7008 60.6542C71.7107 60.7857 71.6931 60.9177 71.6489 61.0419C71.6048 61.1662 71.5351 61.2797 71.4445 61.3754C71.2411 61.5505 70.9899 61.6605 70.7233 61.6911L66.8151 62.2783ZM68.2441 59.1813C67.8475 59.1682 67.4615 59.311 67.169 59.5792C66.8649 59.8862 66.6857 60.2952 66.6659 60.7269L69.5353 60.2621C69.5067 59.9473 69.3545 59.6567 69.1122 59.4538C68.8699 59.2509 68.5571 59.1523 68.2422 59.1793L68.2441 59.1813Z" fill="var(--fill-0, black)"/>
<path id="Vector_23" d="M76.4834 57.4826C76.7025 57.4816 76.9214 57.4989 77.1376 57.5342C77.3296 57.5652 77.5185 57.6132 77.702 57.6777V55.1507C77.811 55.122 77.9564 55.0914 78.1381 55.0607C78.3368 55.0294 78.5377 55.0147 78.7388 55.0167C79.1902 55.0167 79.5135 55.0914 79.7087 55.2406C79.9038 55.3898 80.0013 55.6754 80.0013 56.0976V63.4204C80.009 63.6331 79.9573 63.8437 79.8521 64.0287C79.7286 64.2166 79.5637 64.3736 79.3701 64.4878C79.0283 64.6845 78.665 64.8411 78.2873 64.9546C77.7948 65.102 77.2825 65.173 76.7684 65.165C75.5059 65.165 74.5111 64.8462 73.7842 64.2085C73.0573 63.5709 72.6938 62.6144 72.6938 61.3391C72.6801 60.7516 72.7801 60.1669 72.9884 59.6174C73.1656 59.1633 73.4398 58.7533 73.7919 58.4161C74.1359 58.0986 74.5443 57.8591 74.9894 57.714C75.4714 57.5557 75.9761 57.4775 76.4834 57.4826ZM77.7173 59.5122C77.5785 59.4489 77.4353 59.3958 77.2888 59.3534C76.9795 59.2698 76.6542 59.2653 76.3426 59.3401C76.0311 59.415 75.7434 59.5669 75.5059 59.7819C75.1845 60.1129 75.0257 60.6389 75.0257 61.3601C75.0257 62.0813 75.1769 62.5557 75.4829 62.8714C75.6504 63.0339 75.8497 63.16 76.0683 63.2416C76.287 63.3233 76.5201 63.3587 76.7531 63.3458C76.9435 63.3485 77.1333 63.3253 77.3175 63.2769C77.4571 63.2427 77.5916 63.1899 77.7173 63.12V59.5122Z" fill="var(--fill-0, black)"/>
<path id="Vector_24" d="M17.8715 74.0316C17.8755 74.1262 17.8472 74.2193 17.7912 74.2956C17.7238 74.3774 17.6388 74.4428 17.5425 74.4869C17.3683 74.5719 17.1828 74.6312 16.9916 74.6629C16.7546 74.7091 16.5137 74.7321 16.2723 74.7318C15.9342 74.7348 15.5976 74.6871 15.2737 74.5902C14.9832 74.5029 14.7154 74.3527 14.4894 74.1502C14.2621 73.9379 14.0867 73.676 13.9768 73.385C13.8445 73.0383 13.7795 72.6695 13.7855 72.2985C13.7785 71.9323 13.8435 71.5683 13.9768 71.2272C14.0894 70.9428 14.2634 70.6867 14.4862 70.477C14.709 70.2674 14.9753 70.1095 15.2661 70.0144C15.5678 69.9115 15.8846 69.8597 16.2034 69.8614C16.4064 69.8597 16.6089 69.879 16.8079 69.9187C16.9712 69.9504 17.1303 70.0005 17.2823 70.068C17.3976 70.1167 17.5017 70.1882 17.5884 70.2784C17.655 70.3443 17.6934 70.4334 17.6955 70.5271C17.697 70.6077 17.6728 70.6867 17.6267 70.7528C17.5825 70.8146 17.525 70.8656 17.4583 70.902C17.3025 70.8063 17.1387 70.7244 16.9686 70.6571C16.7409 70.5738 16.4994 70.5348 16.257 70.5424C16.0375 70.5406 15.8196 70.5795 15.6142 70.6571C15.4199 70.731 15.2438 70.8458 15.0977 70.9938C14.9462 71.1511 14.8301 71.3389 14.7572 71.5448C14.5915 72.0453 14.5915 72.586 14.7572 73.0866C14.831 73.2918 14.9485 73.4785 15.1016 73.6337C15.2486 73.7777 15.4266 73.8863 15.6219 73.9513C15.8328 74.0214 16.0539 74.0563 16.2761 74.0546C16.4302 74.0559 16.584 74.0418 16.7352 74.0125C16.8491 73.9933 16.9598 73.9585 17.0643 73.9092V72.6849H16.0121C15.9826 72.6445 15.9605 72.5992 15.9471 72.551C15.9296 72.4926 15.9206 72.4321 15.9203 72.3712C15.9126 72.2773 15.9414 72.1841 16.0007 72.111C16.0291 72.0825 16.0633 72.0604 16.1008 72.0459C16.1384 72.0314 16.1785 72.0249 16.2187 72.0268H17.5043C17.6012 72.0241 17.6955 72.0583 17.7682 72.1225C17.8038 72.1578 17.8314 72.2003 17.8492 72.2471C17.867 72.294 17.8747 72.3441 17.8715 72.3941V74.0316Z" fill="var(--fill-0, black)"/>
<path id="Vector_25" d="M19.5399 74.6054C19.4915 74.6239 19.4415 74.638 19.3906 74.6475C19.3213 74.6611 19.2508 74.6675 19.1802 74.6666C19.0643 74.6749 18.9489 74.6453 18.8512 74.5825C18.8127 74.5467 18.783 74.5026 18.7644 74.4535C18.7458 74.4044 18.7389 74.3516 18.7441 74.2994V71.7819C18.7387 71.6733 18.7653 71.5656 18.8206 71.472C18.8852 71.3802 18.9687 71.3032 19.0654 71.2463C19.2444 71.1419 19.4378 71.0646 19.6393 71.0167C19.8892 70.9526 20.1465 70.9218 20.4045 70.9249C20.8541 70.9249 21.0779 71.0531 21.0779 71.3075C21.0786 71.3663 21.0682 71.4247 21.0473 71.4797C21.0285 71.5288 21.0055 71.5762 20.9784 71.6212C20.9267 71.6212 20.8636 71.6002 20.7871 71.5906C20.7059 71.5804 20.6241 71.5753 20.5422 71.5753C20.354 71.5731 20.1663 71.5949 19.9837 71.6403C19.8342 71.6762 19.6902 71.7315 19.5552 71.8048L19.5399 74.6054Z" fill="var(--fill-0, black)"/>
<path id="Vector_26" d="M24.9196 72.8225C24.9239 73.0909 24.8799 73.3579 24.7895 73.6107C24.7117 73.833 24.5878 74.0364 24.426 74.2075C24.2652 74.3757 24.0692 74.5063 23.8522 74.5901C23.3682 74.7686 22.8364 74.7686 22.3524 74.5901C22.1358 74.5053 21.9401 74.3748 21.7785 74.2075C21.6178 74.0355 21.4941 73.8324 21.415 73.6107C21.2416 73.0996 21.2416 72.5455 21.415 72.0344C21.4949 71.8122 21.62 71.609 21.7823 71.4376C21.9446 71.271 22.1401 71.1407 22.3562 71.055C22.8349 70.8764 23.362 70.8764 23.8407 71.055C24.0574 71.1395 24.2532 71.27 24.4146 71.4376C24.5766 71.6092 24.7016 71.8124 24.7818 72.0344C24.8756 72.2865 24.9223 72.5536 24.9196 72.8225ZM23.1061 71.5676C22.9677 71.5619 22.8298 71.5887 22.7036 71.6459C22.5774 71.703 22.4663 71.7889 22.3792 71.8967C22.1858 72.1652 22.0912 72.4923 22.1114 72.8225C22.0911 73.1505 22.1828 73.4756 22.3715 73.7446C22.4646 73.8469 22.578 73.9287 22.7045 73.9846C22.831 74.0406 22.9678 74.0695 23.1061 74.0695C23.2444 74.0695 23.3812 74.0406 23.5077 73.9846C23.6342 73.9287 23.7476 73.8469 23.8407 73.7446C24.0121 73.4676 24.1029 73.1483 24.1029 72.8225C24.1029 72.4968 24.0121 72.1775 23.8407 71.9005C23.7536 71.7905 23.6415 71.7029 23.5138 71.645C23.386 71.5871 23.2462 71.5605 23.1061 71.5676Z" fill="var(--fill-0, black)"/>
<path id="Vector_27" d="M27.9306 72.1339C27.8693 72.3584 27.8056 72.5841 27.7393 72.8111C27.6704 73.0387 27.6015 73.2587 27.5327 73.473C27.4638 73.6872 27.3988 73.8862 27.3414 74.0698C27.284 74.2535 27.2209 74.4141 27.1692 74.5519C27.1111 74.5914 27.0463 74.6199 26.9779 74.6361C26.8905 74.6588 26.8004 74.6692 26.7101 74.6667C26.6031 74.6687 26.4966 74.6506 26.3964 74.6131C26.3542 74.6005 26.3153 74.579 26.2822 74.5499C26.2492 74.5209 26.2229 74.485 26.2051 74.4448C26.1189 74.254 26.0473 74.0571 25.9908 73.8556C25.9105 73.5858 25.8282 73.2817 25.746 72.968C25.6637 72.6542 25.5853 72.3233 25.5087 71.9962C25.4322 71.669 25.371 71.384 25.3175 71.1392C25.3672 71.0875 25.4254 71.0448 25.4896 71.0129C25.5667 70.974 25.652 70.9543 25.7383 70.9555C25.9679 70.9555 26.1056 71.083 26.1515 71.3381C26.1974 71.5983 26.2472 71.8603 26.3007 72.1262C26.3543 72.3922 26.4078 72.6408 26.4576 72.8723C26.5073 73.1038 26.5571 73.3104 26.5991 73.4921C26.6412 73.6738 26.6757 73.8097 26.6948 73.9015H26.7254C26.7522 73.8097 26.7904 73.6757 26.844 73.4998L27.0353 72.8953C27.1042 72.6676 27.1807 72.4228 27.261 72.1607C27.3414 71.8986 27.4275 71.6365 27.5135 71.3764C27.6414 71.3028 27.7869 71.2657 27.9344 71.2692C28.036 71.266 28.137 71.287 28.229 71.3305C28.2658 71.3474 28.2988 71.3718 28.3258 71.4021C28.3528 71.4324 28.3732 71.4679 28.3858 71.5064C28.4681 71.7609 28.5465 72.0134 28.623 72.2602C28.6996 72.5069 28.7703 72.7384 28.8335 72.9526C28.8966 73.1669 28.954 73.3563 29.0018 73.5265C29.0496 73.6968 29.0879 73.8173 29.1128 73.9091H29.151C29.2543 73.4704 29.3615 73.0062 29.4724 72.5165C29.5834 72.0268 29.6777 71.5371 29.7555 71.0473C29.8096 71.0208 29.8659 70.999 29.9239 70.9823C29.986 70.9643 30.0504 70.9553 30.1152 70.9555C30.2117 70.9505 30.3071 70.9774 30.3868 71.032C30.4226 71.0614 30.4507 71.099 30.4687 71.1417C30.4867 71.1844 30.4941 71.2308 30.4901 71.2769C30.4841 71.3902 30.4688 71.5028 30.4442 71.6136C30.4136 71.7723 30.3715 71.956 30.3179 72.1683C30.2644 72.3807 30.207 72.6045 30.1419 72.8417C30.0769 73.0789 30.0157 73.3065 29.9506 73.5265C29.8856 73.7465 29.8244 73.9474 29.7593 74.131C29.6943 74.3147 29.6484 74.4543 29.6063 74.5519C29.5482 74.5905 29.4833 74.6177 29.415 74.6322C29.3252 74.6564 29.2325 74.668 29.1396 74.6667C28.8698 74.6667 28.711 74.6035 28.6651 74.4754C28.6192 74.3472 28.5657 74.2018 28.5044 74.0239C28.4432 73.846 28.3801 73.6528 28.3131 73.45C28.2462 73.2472 28.1812 73.0272 28.1219 72.8034C28.0626 72.5796 27.9879 72.3539 27.9306 72.1339Z" fill="var(--fill-0, black)"/>
<path id="Vector_28" d="M33.348 71.736C33.1839 71.6107 32.9803 71.5483 32.7741 71.56C32.6121 71.5575 32.4507 71.5808 32.2959 71.6289C32.1704 71.6689 32.0487 71.7201 31.9324 71.7819V74.6055C31.884 74.6239 31.8341 74.638 31.7832 74.6476C31.7139 74.6612 31.6434 74.6676 31.5728 74.6667C31.4569 74.6752 31.3414 74.6456 31.2438 74.5825C31.2053 74.5468 31.1756 74.5026 31.157 74.4535C31.1384 74.4044 31.1315 74.3516 31.1366 74.2994V71.7743C31.1319 71.6753 31.1559 71.577 31.2055 71.4912C31.2668 71.405 31.3449 71.3322 31.4351 71.2769C31.6112 71.176 31.7987 71.0963 31.9936 71.0397C32.247 70.9652 32.5101 70.9291 32.7741 70.9326C33.1884 70.9084 33.5985 71.0258 33.9372 71.2654C34.0818 71.3881 34.1953 71.5432 34.2684 71.718C34.3416 71.8929 34.3723 72.0826 34.3581 72.2717V74.6055C34.3085 74.6244 34.2573 74.6385 34.205 74.6476C34.1344 74.661 34.0626 74.6674 33.9908 74.6667C33.8749 74.6752 33.7593 74.6456 33.6617 74.5825C33.6233 74.5468 33.5936 74.5026 33.575 74.4535C33.5564 74.4044 33.5494 74.3516 33.5546 74.2994V72.2946C33.5649 72.1919 33.5516 72.0883 33.5158 71.9915C33.48 71.8947 33.4226 71.8073 33.348 71.736Z" fill="var(--fill-0, black)"/>
<path id="Vector_29" d="M38.3486 70.925C38.5784 70.9238 38.8065 70.9639 39.022 71.0436C39.2266 71.1199 39.412 71.24 39.5653 71.3956C39.7265 71.5636 39.8492 71.7646 39.9249 71.9848C40.0161 72.2519 40.0601 72.5328 40.055 72.815C40.0611 73.1013 40.0158 73.3864 39.9211 73.6567C39.8403 73.8809 39.7095 74.0837 39.5385 74.2497C39.3712 74.4081 39.1715 74.5282 38.9531 74.6017C38.7103 74.683 38.4555 74.7231 38.1994 74.7203C37.9522 74.7245 37.7058 74.691 37.4687 74.6208C37.287 74.5677 37.1133 74.4905 36.9522 74.3913C36.862 74.336 36.7839 74.2631 36.7226 74.177C36.6734 74.0938 36.6494 73.9981 36.6537 73.9015V69.6471L36.8068 69.6089C36.8771 69.5932 36.949 69.5855 37.021 69.5859C37.1358 69.5769 37.2502 69.6066 37.3462 69.6701C37.3837 69.7064 37.4124 69.7508 37.4303 69.7998C37.4482 69.8488 37.4548 69.9013 37.4495 69.9532V71.1622C37.5719 71.096 37.6999 71.041 37.8321 70.9977C37.9993 70.9459 38.1737 70.9214 38.3486 70.925ZM38.2185 71.5677C38.0693 71.5653 37.921 71.5926 37.7824 71.6481C37.6648 71.6972 37.5542 71.7615 37.4534 71.8394V73.8748C37.5449 73.9362 37.6456 73.9827 37.7518 74.0125C37.8958 74.0553 38.0454 74.0759 38.1956 74.0737C38.3376 74.0805 38.4794 74.0566 38.6114 74.0038C38.7435 73.951 38.8626 73.8705 38.9608 73.7676C39.1775 73.4983 39.2817 73.1556 39.2515 72.8112C39.2515 72.3776 39.1559 72.0587 38.9646 71.8547C38.8674 71.7571 38.7507 71.6811 38.6222 71.6316C38.4936 71.5822 38.3561 71.5604 38.2185 71.5677Z" fill="var(--fill-0, black)"/>
<path id="Vector_30" d="M41.3559 73.779C41.2284 73.5239 41.0728 73.1694 40.8891 72.7154C40.7055 72.2614 40.527 71.7411 40.3535 71.1544C40.4064 71.094 40.4716 71.0458 40.5448 71.0129C40.6208 70.9748 40.7047 70.9551 40.7897 70.9555C40.8879 70.951 40.9847 70.9793 41.0651 71.0358C41.1499 71.1097 41.2111 71.2068 41.2411 71.3151C41.3789 71.7283 41.5217 72.1351 41.6696 72.5356C41.8169 72.9354 41.9814 73.3505 42.1594 73.779H42.19C42.2665 73.6164 42.3449 73.4251 42.4233 73.2051C42.5018 72.9851 42.5802 72.7537 42.6567 72.5088C42.7332 72.2639 42.804 72.0153 42.871 71.7627C42.9379 71.5102 42.9953 71.2692 43.047 71.0396C43.0974 71.0148 43.1499 70.9943 43.2038 70.9784C43.2662 70.9619 43.3306 70.9541 43.3951 70.9555C43.4956 70.952 43.5946 70.9801 43.6782 71.0358C43.717 71.064 43.7479 71.1017 43.768 71.1452C43.788 71.1888 43.7967 71.2367 43.793 71.2845C43.7812 71.4905 43.7466 71.6945 43.6897 71.8928C43.6209 72.167 43.5303 72.468 43.4181 72.7957C43.3052 73.1248 43.179 73.4576 43.0355 73.7943C42.9077 74.0997 42.7647 74.3985 42.607 74.6896C42.4044 75.0542 42.1661 75.3976 41.8954 75.7149C41.828 75.8114 41.741 75.8926 41.6402 75.9533C41.5393 76.0139 41.4268 76.0526 41.31 76.0669C41.1854 76.0733 41.0632 76.0307 40.9695 75.9483C40.8862 75.8701 40.831 75.7665 40.8126 75.6537C40.8949 75.5829 40.9829 75.4949 41.0804 75.3935C41.178 75.2922 41.2717 75.1812 41.3712 75.0645C41.4707 74.9478 41.5625 74.8254 41.6467 74.701C41.7279 74.5845 41.802 74.4631 41.8686 74.3376C41.7741 74.3078 41.6877 74.2568 41.6161 74.1884C41.5064 74.0679 41.4184 73.9294 41.3559 73.779Z" fill="var(--fill-0, black)"/>
<path id="Vector_31" d="M47.9787 71.736C47.8145 71.6107 47.611 71.5483 47.4048 71.56C47.2427 71.5575 47.0813 71.5808 46.9265 71.6289C46.801 71.6689 46.6794 71.7201 46.5631 71.7819V74.6055C46.5147 74.6239 46.4648 74.638 46.4139 74.6476C46.3446 74.6612 46.2741 74.6676 46.2034 74.6667C46.0875 74.6752 45.972 74.6456 45.8744 74.5825C45.8359 74.5468 45.8062 74.5026 45.7877 74.4535C45.7691 74.4044 45.7621 74.3516 45.7673 74.2994V71.7743C45.7626 71.6753 45.7865 71.577 45.8362 71.4912C45.8975 71.405 45.9756 71.3322 46.0657 71.2769C46.2418 71.176 46.4294 71.0963 46.6243 71.0397C46.8777 70.9652 47.1407 70.9291 47.4048 70.9326C47.819 70.9084 48.2292 71.0258 48.5679 71.2654C48.7124 71.3881 48.8259 71.5432 48.8991 71.718C48.9722 71.8929 49.0029 72.0826 48.9887 72.2717V74.6055C48.9392 74.6244 48.8879 74.6385 48.8357 74.6476C48.7651 74.661 48.6933 74.6674 48.6214 74.6667C48.5055 74.6752 48.39 74.6456 48.2924 74.5825C48.2539 74.5468 48.2242 74.5026 48.2056 74.4535C48.1871 74.4044 48.1801 74.3516 48.1853 74.2994V72.2946C48.1955 72.1919 48.1823 72.0883 48.1465 71.9915C48.1107 71.8947 48.0533 71.8073 47.9787 71.736Z" fill="var(--fill-0, black)"/>
<path id="Vector_32" d="M51.2263 70.9249C51.6273 70.904 52.0243 71.0126 52.3588 71.2348C52.5036 71.3503 52.6178 71.4998 52.6912 71.6699C52.7646 71.8401 52.795 72.0257 52.7796 72.2104V73.9932C52.7859 74.0904 52.7574 74.1867 52.6993 74.2649C52.6368 74.3362 52.5631 74.3969 52.4812 74.4447C52.3193 74.5303 52.147 74.5946 51.9686 74.636C51.7309 74.6953 51.4865 74.7235 51.2416 74.7202C50.8346 74.7434 50.4302 74.6419 50.0824 74.4294C49.9456 74.3339 49.8356 74.205 49.7626 74.055C49.6896 73.9051 49.6561 73.7389 49.6653 73.5724C49.6576 73.4285 49.6829 73.2847 49.7393 73.1521C49.7956 73.0195 49.8816 72.9015 49.9906 72.8072C50.2639 72.6078 50.5899 72.4934 50.9279 72.4782L51.9915 72.3711V72.2027C51.9993 72.1093 51.9834 72.0155 51.9453 71.9299C51.9072 71.8443 51.8481 71.7697 51.7734 71.713C51.5909 71.6013 51.3787 71.5479 51.1651 71.56C50.9657 71.5596 50.7673 71.588 50.5759 71.6441C50.4027 71.6941 50.2338 71.7581 50.0709 71.8354C50.0188 71.794 49.9747 71.7434 49.9408 71.6862C49.9056 71.6286 49.8871 71.5624 49.8873 71.4949C49.8839 71.4182 49.9068 71.3426 49.9523 71.2807C50.007 71.2164 50.0766 71.1665 50.1551 71.1353C50.31 71.06 50.4749 71.0072 50.6448 70.9784C50.8367 70.9435 51.0313 70.9256 51.2263 70.9249ZM51.2416 74.1004C51.3989 74.1032 51.5559 74.0852 51.7084 74.0468C51.8084 74.0242 51.904 73.9855 51.9915 73.932V72.9602L51.1575 73.0444C50.9716 73.0544 50.7907 73.1081 50.6295 73.2013C50.5712 73.2415 50.5244 73.2961 50.4935 73.3598C50.4627 73.4235 50.4489 73.4941 50.4535 73.5647C50.4502 73.6411 50.4659 73.7172 50.4993 73.7859C50.5327 73.8547 50.5827 73.9141 50.6448 73.9588C50.8244 74.0664 51.0328 74.1158 51.2416 74.1004Z" fill="var(--fill-0, black)"/>
<path id="Vector_33" d="M54.6166 73.955C54.7515 74.0392 54.9093 74.0794 55.068 74.0698C55.1611 74.0685 55.2536 74.0556 55.3435 74.0315C55.4308 74.0104 55.5155 73.9796 55.596 73.9397C55.6331 73.9818 55.6651 74.028 55.6917 74.0774C55.722 74.1365 55.7365 74.2024 55.7337 74.2687C55.7322 74.3366 55.7126 74.4029 55.677 74.4607C55.6413 74.5185 55.5909 74.5658 55.531 74.5977C55.3414 74.6967 55.1284 74.7417 54.915 74.7278C54.5904 74.7444 54.2693 74.6544 54.0006 74.4715C53.773 74.3012 53.6601 74.0181 53.6601 73.626V70.0449L53.8131 70.0066C53.8834 69.9909 53.9553 69.9832 54.0274 69.9837C54.1421 69.9747 54.2566 70.0043 54.3526 70.0679C54.39 70.1042 54.4188 70.1486 54.4366 70.1976C54.4545 70.2466 54.4611 70.2991 54.4559 70.351V71.1162H55.6419C55.6672 71.1565 55.6866 71.2003 55.6993 71.2462C55.717 71.3032 55.7261 71.3626 55.7261 71.4222C55.7261 71.6422 55.6324 71.7513 55.443 71.7513H54.4559V73.5724C54.4498 73.6444 54.4612 73.7168 54.4892 73.7834C54.5172 73.8501 54.5609 73.9089 54.6166 73.955Z" fill="var(--fill-0, black)"/>
<path id="Vector_34" d="M56.3683 71.0396L56.5213 71.0052C56.5919 70.9918 56.6637 70.9854 56.7356 70.9861C56.8503 70.9771 56.9648 71.0067 57.0608 71.0703C57.0987 71.1079 57.1277 71.1535 57.1456 71.2039C57.1635 71.2542 57.1698 71.3079 57.1641 71.361V73.251C57.1523 73.3671 57.1672 73.4843 57.2076 73.5937C57.2481 73.7031 57.313 73.8018 57.3975 73.8823C57.5846 74.0184 57.813 74.0859 58.044 74.0736C58.1963 74.0772 58.3483 74.0591 58.4955 74.02C58.5963 73.9925 58.6938 73.954 58.7863 73.9053V71.0358L58.9431 71.0014C59.0124 70.9878 59.0829 70.9814 59.1536 70.9823C59.2695 70.9737 59.385 71.0033 59.4826 71.0664C59.5216 71.1034 59.5515 71.1489 59.5701 71.1993C59.5887 71.2497 59.5954 71.3038 59.5897 71.3572V73.9359C59.5937 74.0306 59.5754 74.125 59.5362 74.2113C59.4836 74.2964 59.4098 74.3663 59.3219 74.4141C59.1562 74.5039 58.9802 74.5733 58.7977 74.6207C58.5481 74.6863 58.2906 74.7172 58.0326 74.7125C57.5956 74.7388 57.1626 74.6161 56.8044 74.3644C56.5124 74.1335 56.3657 73.765 56.3645 73.2587L56.3683 71.0396Z" fill="var(--fill-0, black)"/>
<path id="Vector_35" d="M61.2886 74.6054C61.2402 74.6239 61.1903 74.638 61.1394 74.6475C61.0701 74.6611 60.9996 74.6675 60.929 74.6666C60.813 74.6752 60.6975 74.6456 60.5999 74.5825C60.5615 74.5467 60.5318 74.5026 60.5132 74.4535C60.4946 74.4044 60.4876 74.3516 60.4928 74.2994V71.7819C60.4874 71.6733 60.514 71.5656 60.5693 71.472C60.6339 71.3802 60.7174 71.3032 60.8142 71.2463C60.9931 71.1419 61.1865 71.0646 61.3881 71.0167C61.638 70.9526 61.8953 70.9218 62.1533 70.9249C62.6028 70.9249 62.8266 71.0531 62.8266 71.3075C62.8274 71.3663 62.817 71.4247 62.796 71.4797C62.7773 71.5288 62.7542 71.5762 62.7271 71.6212C62.6755 71.6212 62.6124 71.6002 62.5358 71.5906C62.4546 71.5804 62.3728 71.5753 62.291 71.5753C62.1028 71.5731 61.9151 71.5949 61.7324 71.6403C61.583 71.6762 61.4389 71.7315 61.3039 71.8048L61.2886 74.6054Z" fill="var(--fill-0, black)"/>
<path id="Vector_36" d="M63.8515 73.2281C63.9028 73.489 64.052 73.7204 64.2685 73.8747C64.5052 74.0231 64.7813 74.0965 65.0605 74.0851C65.2613 74.0878 65.4609 74.0541 65.6497 73.9856C65.801 73.9327 65.945 73.8607 66.0782 73.7714C66.1426 73.8029 66.1968 73.852 66.2347 73.9128C66.2726 73.9737 66.2926 74.044 66.2924 74.1157C66.2912 74.2058 66.2556 74.292 66.1929 74.3568C66.1163 74.4382 66.0238 74.5033 65.9213 74.5481C65.7917 74.6062 65.6555 74.6486 65.5158 74.6743C65.3506 74.7058 65.1827 74.7212 65.0146 74.7202C64.7406 74.7239 64.4679 74.6826 64.2073 74.5978C63.9754 74.5217 63.7627 74.3964 63.5837 74.2305C63.4059 74.0618 63.2686 73.8552 63.182 73.626C63.0832 73.3593 63.0351 73.0764 63.0404 72.792C63.035 72.5166 63.0817 72.2427 63.1781 71.9847C63.2638 71.7686 63.3942 71.573 63.5607 71.4108C63.7205 71.255 63.9106 71.1339 64.1193 71.055C64.3394 70.9722 64.5728 70.9307 64.808 70.9326C65.0366 70.9299 65.2637 70.9701 65.4775 71.0512C65.6704 71.1231 65.8472 71.2323 65.9978 71.3725C66.1442 71.5139 66.259 71.6847 66.3345 71.8737C66.4149 72.0757 66.4552 72.2915 66.4531 72.5088C66.4576 72.5592 66.4518 72.6099 66.436 72.658C66.4202 72.706 66.3948 72.7503 66.3613 72.7881C66.2857 72.8533 66.1925 72.8945 66.0935 72.9067L63.8515 73.2281ZM64.808 71.5447C64.678 71.5409 64.5487 71.5641 64.4282 71.6128C64.3077 71.6615 64.1986 71.7348 64.1078 71.8278C63.9087 72.0501 63.8032 72.3407 63.8132 72.6389L65.6956 72.3711C65.6796 72.1531 65.5907 71.9469 65.4431 71.7857C65.3598 71.7014 65.2592 71.6362 65.1482 71.5946C65.0372 71.553 64.9185 71.536 64.8003 71.5447H64.808Z" fill="var(--fill-0, black)"/>
</g>
</svg>
