<svg preserveAspectRatio="none" width="100%" height="100%" overflow="visible" style="display: block;" viewBox="0 0 95.7367 69.6635" fill="none" xmlns="http://www.w3.org/2000/svg">
<path id="Vector 50" d="M0.877991 66.4472C0.561164 66.3083 0.191738 66.4526 0.0528545 66.7694C-0.0860287 67.0862 0.0582235 67.4556 0.375051 67.5945L0.626521 67.0209L0.877991 66.4472ZM34.7633 51.675L34.1909 51.4206V51.4206L34.7633 51.675ZM91.2295 0.149985C90.9664 -0.0746143 90.571 -0.0434017 90.3464 0.219701L86.6863 4.50721C86.4617 4.77031 86.493 5.16567 86.7561 5.39027C87.0192 5.61487 87.4145 5.58366 87.6391 5.32056L90.8925 1.50944L94.7036 4.76283C94.9667 4.98743 95.3621 4.95622 95.5867 4.69312C95.8113 4.43001 95.7801 4.03465 95.517 3.81005L91.2295 0.149985ZM0.626521 67.0209L0.375051 67.5945C4.29055 69.3109 10.716 70.5764 17.3314 68.8163C23.98 67.0472 30.7538 62.2386 35.3357 51.9294L34.7633 51.675L34.1909 51.4206C29.7532 61.4055 23.269 65.9401 17.0093 67.6057C10.7163 69.28 4.58324 68.0714 0.877991 66.4472L0.626521 67.0209ZM34.7633 51.675L35.3357 51.9294C40.9504 39.2962 46.2117 32.9224 51.3917 29.5326C56.5708 26.1433 61.7417 25.6798 67.4034 25.0507L67.3342 24.4282L67.265 23.8056C61.6522 24.4293 56.1749 24.9053 50.7058 28.4843C45.2376 32.0628 39.8507 38.686 34.1909 51.4206L34.7633 51.675ZM67.3342 24.4282L67.4034 25.0507C70.1632 24.7441 73.2338 24.5788 76.1177 24.1472C79.0279 23.7117 81.8818 22.9912 84.3334 21.5203C86.8016 20.0393 88.8329 17.815 90.1165 14.4329C91.3938 11.0673 91.9213 6.58162 91.4472 0.577079L90.8228 0.626375L90.1984 0.675671C90.6639 6.57203 90.1343 10.8555 88.9453 13.9884C87.7626 17.1047 85.9183 19.1084 83.6888 20.4461C81.4427 21.7937 78.7767 22.4826 75.9323 22.9083C73.0614 23.338 70.1425 23.4859 67.265 23.8056L67.3342 24.4282Z" fill="var(--stroke-0, #34732D)"/>
</svg>
