<svg preserveAspectRatio="xMidYMid meet" width="256" height="80" viewBox="0 0 256 79.707" fill="none" xmlns="http://www.w3.org/2000/svg">
<g id="l.svg">
<path id="Vector" d="M15.0037 25.7565C34.9576 6.89405 85.7321 -3.3175 128.846 25.2889C146.911 37.2752 183.009 79.4534 233.495 64.2025" stroke="var(--stroke-0, #303031)" stroke-width="1.87546" stroke-dasharray="3.75 3.75"/>
<path id="Vector_2" d="M18.7531 27.1621C18.7531 30.2695 16.2341 32.7885 13.1268 32.7885C10.0194 32.7885 7.5004 30.2695 7.5004 27.1621C7.5004 24.0548 10.0194 21.5357 13.1268 21.5357C16.2341 21.5357 18.7531 24.0548 18.7531 27.1621ZM10.9405 27.1621C10.9405 28.3695 11.9193 29.3484 13.1268 29.3484C14.3342 29.3484 15.3131 28.3695 15.3131 27.1621C15.3131 25.9547 14.3342 24.9758 13.1268 24.9758C11.9193 24.9758 10.9405 25.9547 10.9405 27.1621Z" fill="var(--fill-0, #01B73E)"/>
<path id="Vector_3" fill-rule="evenodd" clip-rule="evenodd" d="M240.732 67.9799C243.795 67.077 245.547 63.8618 244.644 60.7981C243.741 57.7351 240.525 55.9835 237.462 56.8865C234.399 57.7893 232.648 61.0052 233.551 64.0682C234.454 67.1317 237.669 68.8828 240.732 67.9799Z" stroke="var(--stroke-0, #01B73E)" stroke-width="1.87546" stroke-linecap="round" stroke-linejoin="round"/>
<path id="Vector_4" d="M238.847 64.7697L240.323 62.0721L237.619 60.6069" stroke="var(--stroke-0, #01B73E)" stroke-width="1.87546" stroke-linecap="round" stroke-linejoin="round"/>
</g>
</svg>
