<svg preserveAspectRatio="none" width="100%" height="100%" overflow="visible" style="display: block;" viewBox="0 0 80 80" fill="none" xmlns="http://www.w3.org/2000/svg">
<g id="plant.svg" clip-path="url(#clip0_0_61)">
<path id="Vector" d="M40 80C62.0914 80 80 62.0914 80 40C80 17.9086 62.0914 0 40 0C17.9086 0 0 17.9086 0 40C0 62.0914 17.9086 80 40 80Z" fill="var(--fill-0, #FFF1D7)"/>
<path id="Vector_2" d="M50.6829 47.0002C56.5752 46.0078 62.406 44.5694 68.4598 44.5925C70.9829 44.5925 71.4214 45.2002 70.7675 47.6694C69.0294 54.1943 65.2035 59.971 59.8739 64.1172C54.5443 68.2633 48.004 70.5511 41.2521 70.6309C27.7367 70.7386 15.1444 61.2463 11.5521 48.3771C10.6906 45.3002 11.6137 44.2386 14.7598 44.5925C17.129 44.8617 19.0444 45.054 20.7521 42.0309C22.7598 38.4771 25.7598 34.7694 30.9906 35.454C33.2214 33.9925 35.0444 34.9309 36.6137 36.5617C38.1284 38.0313 39.5565 39.5878 40.8906 41.2232C42.429 43.2078 41.7444 45.7694 42.5983 47.9078C43.5906 46.0771 41.4752 44.6925 41.9521 42.9617C41.5453 40.7284 41.5977 38.4356 42.106 36.2232C42.3356 35.4707 42.7312 34.7793 43.2637 34.2002C43.7964 33.621 44.4522 33.1688 45.1829 32.8771C49.606 34.154 51.1214 37.7925 49.3598 43.9617C48.8752 45.7078 49.0137 46.5078 50.6829 47.0002Z" fill="var(--fill-0, #0D0E0A)"/>
<path id="Vector_3" d="M45.2117 33.4156C44.4425 34.3848 43.5886 35.3464 42.7733 36.3156C42.2579 37.6771 41.6425 39.0079 42.004 40.5541C42.3656 42.1002 41.4656 42.1771 40.3194 41.8156C39.3943 40.9999 38.5376 40.1098 37.7579 39.1541C36.104 36.7848 34.0886 35.2464 31.0117 35.4541L31.6117 32.7618C33.981 31.1002 36.2271 29.1925 39.2194 28.7464C42.2117 28.3002 45.3194 27.9771 47.0502 31.4387C47.1656 32.7618 45.7579 32.7002 45.2117 33.4156Z" fill="var(--fill-0, #F5BF56)"/>
<path id="Vector_4" d="M46.7591 31.4002C42.7052 28.4541 38.7283 29.0925 34.7822 31.6618C33.8206 32.2848 33.1437 33.8387 31.5898 32.7541C33.536 28.4771 38.5898 26.4387 44.1129 27.7079C47.1905 28.4454 49.877 30.3159 51.6364 32.9465C53.3958 35.5771 54.0988 38.7742 53.6052 41.9002C53.4283 43.0079 53.1822 43.9002 51.9283 44.1156C50.4283 43.8156 50.2745 42.5233 50.3898 41.4618C50.6745 37.5541 49.0437 34.3695 46.7591 31.4002Z" fill="var(--fill-0, #1E1B15)"/>
<path id="Vector_5" d="M46.759 31.4003C50.3437 33.431 51.5283 36.6695 51.4744 40.5772C51.4744 41.7618 50.7052 43.0772 51.9283 44.1157L50.6744 47.0003C49.559 47.5695 48.1283 48.5387 47.1975 47.6464C45.959 46.4618 47.7437 45.4541 48.2129 44.408C50.2283 39.8541 48.9821 35.0541 45.2129 33.4157L46.759 31.4003Z" fill="var(--fill-0, #EDBF69)"/>
<path id="Vector_6" d="M64.1284 40.9924C62.2207 40.9924 60.2822 40.9924 58.413 40.9924C57.6438 40.9924 56.7284 40.9078 56.8053 39.8617C56.8753 39.5454 57.0588 39.2659 57.3211 39.0759C57.5833 38.8859 57.9062 38.7987 58.2284 38.8309C62.2899 38.8309 66.3515 38.8309 70.413 38.8309C70.5715 38.8187 70.7306 38.8403 70.8801 38.8943C71.0295 38.9482 71.1658 39.0333 71.2799 39.1438C71.3941 39.2543 71.4835 39.3877 71.5422 39.5353C71.6009 39.683 71.6277 39.8413 71.6207 40.0001C71.5746 40.7693 70.8515 40.9616 70.2207 40.9693L64.1284 40.9924Z" fill="var(--fill-0, #222323)"/>
<path id="Vector_7" d="M14.1469 39.9936C12.4668 39.8908 10.7596 39.7865 9.11349 39.6858C8.43603 39.6444 7.63536 39.5053 7.77103 38.3979C7.85319 38.0658 8.03296 37.7786 8.27626 37.5909C8.51957 37.4032 8.80957 37.328 9.09126 37.3794C12.6682 37.5981 16.2451 37.8168 19.822 38.0354C19.9623 38.0311 20.101 38.0627 20.2292 38.128C20.3573 38.1934 20.4718 38.2911 20.5651 38.4146C20.6585 38.5381 20.7285 38.6848 20.7707 38.8448C20.8128 39.0048 20.8261 39.1744 20.8096 39.3427C20.719 40.1574 20.0697 40.3228 19.5137 40.2971L14.1469 39.9936Z" fill="var(--fill-0, #222323)"/>
<path id="Vector_8" d="M53.8897 30.1542C53.659 30.0388 53.1205 29.8927 53.059 29.6773C53.0219 29.4446 53.032 29.2069 53.0889 28.9782C53.1457 28.7496 53.248 28.5347 53.3897 28.3465C56.5436 25.6183 59.7307 22.9337 62.9513 20.2927C63.1691 20.2007 63.4032 20.1532 63.6397 20.1532C63.8762 20.1532 64.1103 20.2007 64.3282 20.2927C64.5282 20.3619 64.6744 20.908 64.6513 21.2234C64.6051 21.908 54.6897 30.1619 53.8897 30.1542Z" fill="var(--fill-0, #202121)"/>
<path id="Vector_9" d="M47.2651 11.5619C46.5574 15.4465 45.8497 19.4311 45.0959 23.408C44.9728 24.0388 44.5728 24.6388 43.8266 24.4542C43.6709 24.4158 43.5245 24.3466 43.3959 24.2506C43.2675 24.1546 43.1596 24.0339 43.0785 23.8955C42.9975 23.757 42.945 23.6038 42.9242 23.4448C42.9034 23.2857 42.9147 23.1242 42.9574 22.9696C43.6702 18.985 44.3959 15.0003 45.1343 11.0157C45.2651 10.308 45.6959 9.87726 46.442 10.0311C47.1882 10.185 47.4266 10.7388 47.2651 11.5619Z" fill="var(--fill-0, #212222)"/>
<path id="Vector_10" d="M49.6808 26.3693C48.5115 26.2462 48.1423 25.7078 48.75 24.6078C50.7731 21.1154 52.8039 17.6078 54.8423 14.1154C55.1808 13.5308 55.7192 13.0616 56.3808 13.4924C56.5469 13.6664 56.6657 13.88 56.7263 14.1128C56.7869 14.3457 56.7871 14.5901 56.7269 14.8231C54.6577 18.577 52.5115 22.3001 50.3654 26.0154C50.2423 26.1924 49.9115 26.2462 49.6808 26.3693Z" fill="var(--fill-0, #202121)"/>
<path id="Vector_11" d="M39.1192 22.4005C39.05 23.2543 39.4116 24.2236 38.35 24.4159C37.2885 24.6082 37.1116 23.6467 36.9808 22.939C36.2962 19.2082 35.6808 15.4621 35.0808 11.7159C34.9577 10.9467 34.8731 10.0774 35.9885 10.0466C36.7577 10.0466 37.0577 10.6929 37.1654 11.3236C37.8654 15.0544 38.4962 18.8005 39.1192 22.4005Z" fill="var(--fill-0, #1F1F1F)"/>
<path id="Vector_12" d="M69.7352 29.6314C69.8506 30.4929 69.3583 30.7929 68.7122 31.0314C65.0352 32.3621 61.3506 33.6929 57.6891 35.0852C56.9891 35.3544 56.4122 35.3391 56.0506 34.7314C55.9507 34.5998 55.8862 34.445 55.863 34.2814C55.8398 34.1179 55.8587 33.9512 55.9181 33.7971C55.9774 33.643 56.0752 33.5066 56.202 33.4008C56.3289 33.2951 56.4806 33.2235 56.6429 33.1929C60.5403 31.7314 64.448 30.2826 68.366 28.8467C69.1275 28.5929 69.5352 29.016 69.7352 29.6314Z" fill="var(--fill-0, #222323)"/>
<path id="Vector_13" d="M29.1444 29.4079C28.9598 30.0694 28.3752 30.3771 27.9906 30.0618C24.529 27.2771 21.106 24.4567 17.7214 21.6002C17.6186 21.4485 17.5532 21.2747 17.5304 21.0928C17.5077 20.9111 17.5284 20.7264 17.5906 20.5541C17.9675 20.3002 18.6983 20.0079 18.9137 20.1848C22.3367 23.0079 25.6983 25.8848 29.0598 28.7771C29.1983 28.8694 29.129 29.2233 29.1444 29.4079Z" fill="var(--fill-0, #1A1B1B)"/>
<path id="Vector_14" d="M26.5816 13.2384C27.0008 13.6602 27.3817 14.1184 27.72 14.6076C29.5816 17.7512 31.42 20.9127 33.2354 24.0922C33.6123 24.746 34.0662 25.5615 33.3431 26.1461C32.62 26.7307 31.9123 26.0999 31.5277 25.4537C29.5508 22.0768 27.6277 18.6691 25.6662 15.2922C25.0739 14.2768 25.3354 13.6538 26.5816 13.2384Z" fill="var(--fill-0, #1C1C1C)"/>
<path id="Vector_15" d="M23.25 34.6463C20.0654 33.4463 16.5116 32.1309 12.9962 30.7463C12.8736 30.7129 12.76 30.6522 12.6641 30.5687C12.5682 30.4853 12.4923 30.3814 12.442 30.2646C12.3917 30.1479 12.3684 30.0212 12.3738 29.8942C12.3792 29.7672 12.4131 29.6431 12.4731 29.531C12.5327 29.3887 12.6199 29.2596 12.7298 29.1514C12.8397 29.0432 12.9701 28.958 13.1133 28.9007C13.2566 28.8434 13.4097 28.8152 13.564 28.8178C13.7182 28.8203 13.8703 28.8536 14.0116 28.9156C17.327 30.1309 20.6577 31.3156 23.9577 32.5694C24.4885 32.7771 25.1347 33.1772 24.8193 33.9772C24.6423 34.4772 24.2039 34.7232 23.25 34.6463Z" fill="var(--fill-0, #222323)"/>
<path id="Vector_16" d="M39.7878 52.1079C45.9416 55.131 52.034 58.2617 57.2416 62.831C52.4724 67.031 51.857 66.9156 47.1724 63.131C42.197 58.9693 36.9466 55.1478 31.457 51.6925C31.9493 50.8618 32.8109 50.6387 33.6416 50.3541C34.149 50.2485 34.6727 50.2485 35.1801 50.3541C36.3263 50.6694 37.534 50.7079 38.657 51.1233C39.1493 51.331 39.3263 51.8694 39.7878 52.1079Z" fill="var(--fill-0, #73AD5C)"/>
<path id="Vector_17" d="M21.6034 52.2461C21.9803 51.9461 22.2495 51.4 22.888 51.7153C25.1957 52.2384 27.2957 53.2538 29.6341 53.6153C32.0572 55.5615 34.8495 56.9153 37.5034 58.4923C39.2264 58.6846 40.0418 60.2076 41.288 61.1C42.488 62.3923 43.5957 63.8076 45.2111 64.623C46.2264 65.3384 47.2418 66.0538 47.6187 67.1923C41.0726 70.7692 36.6341 67.2538 32.9187 62.5769C31.3341 60.5692 28.2649 60.4923 27.4649 57.7846C25.6392 55.6234 23.239 54.0233 20.5418 53.1692C20.4726 52.3769 20.7341 51.9615 21.6034 52.2461Z" fill="var(--fill-0, #72AE5A)"/>
<path id="Vector_18" d="M33.729 50.9236C33.152 51.6928 32.1904 51.3466 31.4597 51.6928C29.3135 49.8774 28.8136 45.2774 30.5059 42.9313C33.9367 38.1697 33.9367 38.1697 39.0751 43.9543C39.4367 46.4466 39.7136 48.9466 38.8751 51.4159C37.5828 51.2466 36.1828 51.862 34.9828 50.9082C34.667 50.4001 34.4358 49.8442 34.2981 49.262C34.3063 49.865 34.1051 50.4523 33.729 50.9236Z" fill="var(--fill-0, white)"/>
<path id="Vector_19" d="M52.0354 56.1541L46.6508 52.9388C45.72 51.8234 46.8508 51.4003 47.3738 50.7618C49.6815 49.8695 51.0046 50.5311 51.1815 53.0695C52.7892 54.3618 53.1815 52.9311 53.8431 51.9388C54.6123 50.7157 54.8585 49.0618 56.4123 48.3772C59.5277 47.8157 59.7661 49.1465 58.6738 51.6234C58.1431 52.8311 57.1354 53.9311 57.2431 55.3542C57.0738 56.3618 56.7815 57.408 58.1661 57.8311C58.2661 58.508 57.8585 58.7465 57.2892 58.8541C55.32 58.3772 54.2584 56.1541 52.0354 56.1541Z" fill="var(--fill-0, #73A95C)"/>
<path id="Vector_20" d="M57.4062 58.5157L58.1755 57.8772C58.2618 57.8065 58.3614 57.7538 58.4684 57.7221C58.5754 57.6904 58.6876 57.6804 58.7986 57.6926C60.1882 56.2355 61.1006 54.3893 61.4139 52.4003C61.9907 50.6531 62.9202 49.0428 64.1447 47.6695C65.5832 47.3695 67.0678 46.8311 68.0678 48.5157C67.8533 50.2296 67.169 51.8508 66.0909 53.2003C64.8416 54.6518 63.7628 56.2416 62.8755 57.9388L60.5678 60.0541C58.9524 60.7157 57.8755 60.2464 57.4062 58.5157Z" fill="var(--fill-0, #71AB5E)"/>
<path id="Vector_21" d="M25.0305 63.169C22.1612 61.7075 20.1151 59.3229 18.1843 56.869C17.8535 56.4537 16.5535 56.2691 17.4151 55.223C17.5254 55.067 17.6676 54.9364 17.8323 54.8397C17.997 54.743 18.1804 54.6824 18.3703 54.6621C18.5602 54.6417 18.7522 54.662 18.9337 54.7216C19.1152 54.7811 19.2819 54.8786 19.4228 55.0076C21.592 56.6691 24.2843 57.6307 25.9766 59.9153C27.2689 60.9691 28.3382 62.2922 29.8228 63.0845C30.4228 65.0307 29.5305 65.3922 28.0228 64.623C27.0696 64.052 26.0684 63.5656 25.0305 63.169Z" fill="var(--fill-0, #73AA5E)"/>
<path id="Vector_22" d="M27.1669 48.3233C27.1207 48.4387 28.113 50.3771 26.0976 49.8233C24.4207 49.3695 21.5207 50.4002 21.7361 46.7079C21.8669 44.3541 23.036 44.631 24.613 44.5541C26.936 44.4233 27.9361 45.2464 27.1669 48.3233Z" fill="var(--fill-0, white)"/>
<path id="Vector_23" d="M31.182 38.1391C28.7513 42.6775 28.4436 42.8391 23.582 41.9852C25.482 39.2314 27.3436 36.7852 31.182 38.1391Z" fill="var(--fill-0, white)"/>
<path id="Vector_24" d="M21.6043 52.2461L20.5351 53.1692C18.7043 52.8922 17.5582 51.4768 16.1043 50.5538C14.889 49.7845 13.512 49.0153 13.9505 47.3999C14.2197 46.4076 15.489 46.8845 16.3197 46.9615C17.6582 47.0768 19.8197 46.2691 19.5966 48.823C19.4736 50.6307 21.289 50.9076 21.6043 52.2461Z" fill="var(--fill-0, #78A466)"/>
<path id="Vector_25" d="M40.3281 41.8153C42.7281 40.6845 40.2666 37.3922 42.7743 36.3153C42.7743 38.623 42.7127 40.9306 42.6743 43.1998C41.8435 45.3845 44.0666 47.8538 42.0589 49.9384C40.1897 47.4999 42.2897 44.223 40.3281 41.8153Z" fill="var(--fill-0, #F5BF56)"/>
<path id="Vector_26" d="M45.6282 44.1847C44.2282 41.2539 44.0898 38.8001 45.459 36.2462C47.2821 38.5847 47.359 40.5001 45.6282 44.1847Z" fill="var(--fill-0, white)"/>
<path id="Vector_27" d="M57.2272 55.4003C56.1272 53.8234 57.6811 52.7849 58.1426 51.6157C58.9503 49.6157 58.3196 48.7619 56.3965 48.4234C57.7503 47.5619 59.2119 47.5465 61.0503 47.908C59.7272 50.508 58.4811 52.9388 57.2272 55.4003Z" fill="var(--fill-0, #77A85F)"/>
<path id="Vector_28" d="M25.0273 63.1696C25.5748 63.1084 26.129 63.1573 26.6573 63.3131C27.1857 63.469 27.6777 63.7288 28.1043 64.0773C29.2273 64.9004 29.6427 64.0773 29.7658 63.0619C31.1581 63.908 32.135 65.085 33.4735 67.0542C30.352 66.5688 27.4273 65.2237 25.0273 63.1696Z" fill="var(--fill-0, #76A664)"/>
<path id="Vector_29" d="M20.5352 53.1543C23.8813 53.1543 26.3044 54.4851 27.4582 57.7697C24.7198 56.8774 22.8813 54.6389 20.5352 53.1543Z" fill="var(--fill-0, #73A860)"/>
<path id="Vector_30" d="M57.4044 58.5157C57.7911 58.9847 58.2744 59.365 58.8212 59.6304C59.3682 59.896 59.9658 60.0404 60.5736 60.0541C60.089 61.8464 59.2121 61.3387 58.1428 60.5387C56.1352 59.0387 54.0736 57.6157 52.0352 56.1541C54.5967 55.1772 55.5428 57.8926 57.4044 58.5157Z" fill="var(--fill-0, #77A85F)"/>
<path id="Vector_31" d="M42.0587 49.9385C42.3279 47.6924 41.3972 45.3232 42.6741 43.2001C42.9895 44.1078 42.8818 45.077 43.6433 45.9232C45.6279 48.1616 44.6356 49.4001 42.0587 49.9385Z" fill="var(--fill-0, #EEC576)"/>
<path id="Vector_32" d="M37.5041 58.4923C34.5181 57.8097 31.8156 56.222 29.7656 53.9461C30.0041 53.6154 30.2579 53.6077 30.5349 53.9461C32.9964 55.2 35.5733 56.3615 37.5041 58.4923Z" fill="var(--fill-0, #7EAD6B)"/>
<path id="Vector_33" d="M30.5192 53.9157H29.75C27.0807 54.3388 25.0192 52.8849 22.873 51.6849C25.6269 51.7388 28.3038 52.0234 30.5192 53.9157Z" fill="var(--fill-0, #73A860)"/>
<path id="Vector_34" d="M51.1671 53.1159C50.3978 51.4774 49.3363 50.4082 47.3594 50.8082L52.444 48.9236C51.9132 50.6313 51.544 51.8851 51.1671 53.1159Z" fill="var(--fill-0, #73A45E)"/>
<path id="Vector_35" d="M38.8732 51.4002C38.9424 48.9079 39.0117 46.4233 39.0732 43.931C40.527 46.5464 39.3732 49.3925 39.7886 52.0925L38.8732 51.4002Z" fill="var(--fill-0, #20301D)"/>
<path id="Vector_36" d="M61.3888 52.4001C61.8273 54.8155 60.7427 56.4771 58.7734 57.6925C59.6427 55.9309 60.5196 54.1694 61.3888 52.4001Z" fill="var(--fill-0, #77A85F)"/>
<path id="Vector_37" d="M62.8516 57.9386C62.9383 56.9399 63.2793 55.98 63.8422 55.1506C64.405 54.3211 65.1709 53.6496 66.0669 53.2001C65.4681 55.0534 64.3526 56.6973 62.8516 57.9386Z" fill="var(--fill-0, #77A85F)"/>
<path id="Vector_38" d="M45.2121 64.6236C43.066 64.3774 41.9044 63.0467 41.2891 61.1005C42.8584 61.9459 44.2034 63.1537 45.2121 64.6236Z" fill="var(--fill-0, #75A764)"/>
<path id="Vector_39" d="M29.8188 63.0851C27.788 62.939 26.8111 61.5082 25.9727 59.9159C27.573 60.5126 28.9271 61.6284 29.8188 63.0851Z" fill="var(--fill-0, #76A664)"/>
<path id="Vector_40" d="M47.389 50.7617C47.1505 51.4848 46.9121 52.2156 46.6659 52.9386C46.0044 52.6848 44.8351 52.5156 44.9582 51.8617C45.1736 50.7309 46.3967 50.8156 47.389 50.7617Z" fill="var(--fill-0, #73A45E)"/>
<path id="Vector_41" d="M68.0422 48.5156C66.8576 47.6695 65.4653 47.7464 64.1191 47.6695C65.6268 47.131 67.3268 45.4926 68.0422 48.5156Z" fill="var(--fill-0, #7EAD6C)"/>
<path id="Vector_42" d="M33.7278 50.9235C33.3989 50.2515 33.2383 49.5099 33.2597 48.7621C33.2812 48.0144 33.484 47.2831 33.8509 46.6312C33.9912 46.5589 34.1469 46.5212 34.3047 46.5212C34.4625 46.5212 34.6182 46.5589 34.7585 46.6312C35.7201 47.9927 35.3816 49.4619 34.9816 50.9158L33.7278 50.9235Z" fill="var(--fill-0, #1B1D1C)"/>
<path id="Vector_43" d="M14.8594 48.7465C16.4671 47.6465 17.344 47.4465 18.0209 48.5465C18.144 48.7542 17.8901 49.1926 17.8055 49.5157L14.8594 48.7465Z" fill="var(--fill-0, #70AC59)"/>
</g>
<defs>
<clipPath id="clip0_0_61">
<rect width="80" height="80" fill="white"/>
</clipPath>
</defs>
</svg>
