<svg preserveAspectRatio="none" width="100%" height="100%" overflow="visible" style="display: block;" viewBox="0 0 57.5494 51.0105" fill="none" xmlns="http://www.w3.org/2000/svg">
<g id="Group">
<path id="Vector" d="M12.6029 22.5231C12.6029 22.5231 20.1644 15.7692 12.6029 8.06921C12.6029 8.06921 4.80289 15.7692 12.6029 22.5231Z" fill="var(--fill-0, #F9C45E)" stroke="var(--stroke-0, #020202)" stroke-width="1.53846" stroke-miterlimit="10"/>
<path id="Vector_2" d="M12.311 25.8C12.311 25.8 11.5418 15.6846 0.857153 16.9462C0.857153 16.9462 2.18792 27.8462 12.311 25.8Z" fill="var(--fill-0, #F9C45E)" stroke="var(--stroke-0, #020202)" stroke-width="1.53846" stroke-miterlimit="10"/>
<path id="Vector_3" d="M12.7944 25.8C12.7944 25.8 13.5252 15.6846 24.2406 16.9462C24.2406 16.9462 22.9098 27.8462 12.7944 25.8Z" fill="var(--fill-0, #F9C45E)" stroke="var(--stroke-0, #020202)" stroke-width="1.53846" stroke-miterlimit="10"/>
<path id="Vector_4" d="M12.5805 33.8692C12.5805 33.8692 11.8113 23.7538 1.14208 25.0384C1.14208 25.0077 2.47285 35.8846 12.5805 33.8692Z" fill="var(--fill-0, #F9C45E)" stroke="var(--stroke-0, #020202)" stroke-width="1.53846" stroke-miterlimit="10"/>
<path id="Vector_5" d="M12.7944 33.8693C12.7944 33.8693 13.5252 23.7539 24.2406 25.0385C24.2406 25.0078 22.9098 35.8847 12.7944 33.8693Z" fill="var(--fill-0, #F9C45E)" stroke="var(--stroke-0, #020202)" stroke-width="1.53846" stroke-miterlimit="10"/>
<path id="Vector_6" d="M12.5805 41.8768C12.5805 41.8768 11.8113 31.7614 1.14208 33.046C1.14208 33.046 2.47285 43.9229 12.5805 41.8768Z" fill="var(--fill-0, #F9C45E)" stroke="var(--stroke-0, #020202)" stroke-width="1.53846" stroke-miterlimit="10"/>
<path id="Vector_7" d="M13.0815 41.8768C13.0815 41.8768 13.8508 31.7614 24.5277 33.046C24.52 33.046 23.1892 43.9229 13.0815 41.8768Z" fill="var(--fill-0, #F9C45E)" stroke="var(--stroke-0, #020202)" stroke-width="1.53846" stroke-miterlimit="10"/>
<path id="Vector_8" d="M11.7105 43.5231V50.6077C11.7105 50.9846 12.1413 51.0385 12.4797 51C12.8182 50.9616 13.4259 50.7769 13.4259 50.4154V43.3308C13.4259 42.9539 13.0028 42.9 12.6951 42.9385C12.3874 42.9769 11.749 43.1616 11.749 43.5231H11.7105Z" fill="var(--fill-0, #020202)"/>
<path id="Vector_9" d="M12.5483 22.5231V43.7077" stroke="var(--stroke-0, #020202)" stroke-width="1.53846" stroke-miterlimit="10"/>
<path id="Vector_10" d="M22.019 9.00771V14.1308C22.019 14.2838 22.0798 14.4306 22.188 14.5388C22.2962 14.6469 22.443 14.7077 22.596 14.7077C22.749 14.7077 22.8957 14.6469 23.0039 14.5388C23.1121 14.4306 23.1729 14.2838 23.1729 14.1308V9.00771C23.1729 8.85471 23.1121 8.70802 23.0039 8.59979C22.8957 8.49156 22.749 8.43079 22.596 8.43079C22.443 8.43079 22.2962 8.49156 22.188 8.59979C22.0798 8.70802 22.019 8.85471 22.019 9.00771Z" fill="var(--fill-0, #020202)"/>
<path id="Vector_11" d="M1.38037 9.00771V14.1308C1.38037 14.2838 1.44121 14.4306 1.54937 14.5388C1.6576 14.6469 1.80429 14.7077 1.95729 14.7077C2.11037 14.7077 2.25706 14.6469 2.36529 14.5388C2.47344 14.4306 2.53421 14.2838 2.53421 14.1308V9.00771C2.53421 8.85471 2.47344 8.70802 2.36529 8.59979C2.25706 8.49156 2.11037 8.43079 1.95729 8.43079C1.80429 8.43079 1.6576 8.49156 1.54937 8.59979C1.44121 8.70802 1.38037 8.85471 1.38037 9.00771Z" fill="var(--fill-0, #020202)"/>
<path id="Vector_12" d="M11.9719 0.576923V5.7C11.9719 5.853 12.0327 5.99969 12.1409 6.10792C12.2491 6.21615 12.3958 6.27692 12.5489 6.27692C12.7019 6.27692 12.8486 6.21615 12.9568 6.10792C13.0649 5.99969 13.1258 5.853 13.1258 5.7V0.576923C13.1258 0.423923 13.0649 0.277154 12.9568 0.168924C12.8486 0.0607698 12.7019 0 12.5489 0C12.3958 0 12.2491 0.0607698 12.1409 0.168924C12.0327 0.277154 11.9719 0.423923 11.9719 0.576923Z" fill="var(--fill-0, #020202)"/>
<path id="Vector_13" d="M44.7805 22.5231C44.7805 22.5231 52.3421 15.7692 44.7805 8.06922C44.7805 8.06922 36.9805 15.7692 44.7805 22.5231Z" fill="var(--fill-0, #F9C45E)" stroke="var(--stroke-0, #020202)" stroke-width="1.53846" stroke-miterlimit="10"/>
<path id="Vector_14" d="M44.4815 25.8C44.4815 25.8 43.7508 15.6846 33.0815 16.9462C33.0815 16.9462 34.3738 27.8462 44.4815 25.8Z" fill="var(--fill-0, #F9C45E)" stroke="var(--stroke-0, #020202)" stroke-width="1.53846" stroke-miterlimit="10"/>
<path id="Vector_15" d="M44.9741 25.8C44.9741 25.8 45.7049 15.6846 56.4203 16.9462C56.4203 16.9462 55.0895 27.8462 44.9741 25.8Z" fill="var(--fill-0, #F9C45E)" stroke="var(--stroke-0, #020202)" stroke-width="1.53846" stroke-miterlimit="10"/>
<path id="Vector_16" d="M44.7642 33.8692C44.7642 33.8692 44.0335 23.7538 33.3181 25.0384C33.3181 25.0076 34.6181 35.8845 44.7642 33.8692Z" fill="var(--fill-0, #F9C45E)" stroke="var(--stroke-0, #020202)" stroke-width="1.53846" stroke-miterlimit="10"/>
<path id="Vector_17" d="M44.9741 33.8693C44.9741 33.8693 45.7049 23.7539 56.4203 25.0385C56.4203 25.0078 55.0895 35.8847 44.9741 33.8693Z" fill="var(--fill-0, #F9C45E)" stroke="var(--stroke-0, #020202)" stroke-width="1.53846" stroke-miterlimit="10"/>
<path id="Vector_18" d="M44.7642 41.8768C44.7642 41.8768 44.0335 31.7614 33.3181 33.046C33.3181 33.046 34.6181 43.9229 44.7642 41.8768Z" fill="var(--fill-0, #F9C45E)" stroke="var(--stroke-0, #020202)" stroke-width="1.53846" stroke-miterlimit="10"/>
<path id="Vector_19" d="M45.2554 41.8768C45.2554 41.8768 46.0246 31.7614 56.6938 33.046C56.6938 33.046 55.3861 43.9229 45.2554 41.8768Z" fill="var(--fill-0, #F9C45E)" stroke="var(--stroke-0, #020202)" stroke-width="1.53846" stroke-miterlimit="10"/>
<path id="Vector_20" d="M43.886 43.5231V50.6077C43.886 50.9846 44.3168 51.0385 44.6552 51C44.9937 50.9616 45.5938 50.7769 45.5938 50.4154V43.3308C45.5938 42.9539 45.1706 42.9 44.8629 42.9385C44.5552 42.9769 43.9168 43.1616 43.9168 43.5231H43.886Z" fill="var(--fill-0, #020202)"/>
<path id="Vector_21" d="M44.728 22.5231V43.7077" stroke="var(--stroke-0, #020202)" stroke-width="1.53846" stroke-miterlimit="10"/>
<path id="Vector_22" d="M54.1948 9.00747V14.1305C54.1948 14.2835 54.2556 14.4303 54.3638 14.5385C54.472 14.6467 54.6187 14.7075 54.7717 14.7075C54.9247 14.7075 55.0715 14.6467 55.1797 14.5385C55.2879 14.4303 55.3487 14.2835 55.3487 14.1305V9.00747C55.3487 8.85447 55.2879 8.70777 55.1797 8.59954C55.0715 8.49131 54.9247 8.43054 54.7717 8.43054C54.6187 8.43054 54.472 8.49131 54.3638 8.59954C54.2556 8.70777 54.1948 8.85447 54.1948 9.00747Z" fill="var(--fill-0, #020202)"/>
<path id="Vector_23" d="M33.5581 9.00771V14.1308C33.5581 14.2838 33.6189 14.4306 33.7271 14.5388C33.8353 14.6469 33.982 14.7077 34.135 14.7077C34.288 14.7077 34.4348 14.6469 34.5429 14.5388C34.6512 14.4306 34.7119 14.2838 34.7119 14.1308V9.00771C34.7119 8.85471 34.6512 8.70802 34.5429 8.59979C34.4348 8.49156 34.288 8.43079 34.135 8.43079C33.982 8.43079 33.8353 8.49156 33.7271 8.59979C33.6189 8.70802 33.5581 8.85471 33.5581 9.00771Z" fill="var(--fill-0, #020202)"/>
<path id="Vector_24" d="M44.1499 0.576923V5.7C44.1499 5.853 44.2107 5.99969 44.3189 6.10792C44.4271 6.21615 44.5738 6.27692 44.7268 6.27692C44.8798 6.27692 45.0266 6.21615 45.1348 6.10792C45.243 5.99969 45.3037 5.853 45.3037 5.7V0.576923C45.3037 0.423923 45.243 0.277154 45.1348 0.168924C45.0266 0.0607698 44.8798 0 44.7268 0C44.5738 0 44.4271 0.0607698 44.3189 0.168924C44.2107 0.277154 44.1499 0.423923 44.1499 0.576923Z" fill="var(--fill-0, #020202)"/>
</g>
</svg>
