<svg preserveAspectRatio="none" width="100%" height="100%" overflow="visible" style="display: block;" viewBox="0 0 80 80" fill="none" xmlns="http://www.w3.org/2000/svg">
<g id="health.svg" clip-path="url(#clip0_0_47)">
<path id="Vector" d="M40 80C62.0914 80 80 62.0914 80 40C80 17.9086 62.0914 0 40 0C17.9086 0 0 17.9086 0 40C0 62.0914 17.9086 80 40 80Z" fill="var(--fill-0, #FFF1D7)"/>
<path id="Vector_2" d="M64.6126 56.1431C65.2664 56.9123 66.2741 58.0123 64.4972 58.3046C62.5126 58.6354 59.651 59.1739 58.551 58.1508C56.4356 56.1739 55.2587 57.5816 53.751 58.3354C49.3049 60.5508 44.8587 62.7739 40.4741 65.1047C39.4972 65.7048 38.3766 66.0308 37.2302 66.0484C36.0837 66.066 34.9536 65.7746 33.9587 65.2046C28.2126 62.1739 22.4203 59.3046 16.6203 56.3046C13.1049 54.4739 12.8203 51.6893 16.3972 50.3739C20.8126 48.7508 25.2356 45.2508 30.428 48.3585C30.5356 48.42 30.7203 48.52 30.7818 48.4739C35.551 44.82 42.4126 48.92 46.9356 44.0354C48.5587 42.2893 50.9818 41.997 53.3587 42.197C54.0049 42.2508 54.7049 42.3123 54.7049 43.1662C54.7106 43.3246 54.683 43.4824 54.6239 43.6295C54.5647 43.7765 54.4753 43.9095 54.3614 44.0197C54.2475 44.13 54.1117 44.215 53.9629 44.2694C53.814 44.3238 53.6553 44.3463 53.4972 44.3354C50.2433 44.12 48.228 45.797 45.9895 48.0123C44.3818 49.6047 41.3741 48.4662 38.9433 48.5123C36.251 48.5739 33.8587 49.097 32.2818 51.5047C31.3741 52.8893 31.251 53.8123 33.4356 53.8123C37.0126 53.7354 40.5972 53.7739 44.2049 53.8123C45.051 53.8123 46.2895 53.6123 46.251 54.8816C46.251 56.0047 45.0741 56.0046 44.1664 55.997C37.2433 55.9508 30.151 56.8662 23.9049 52.3816C21.451 50.62 18.6203 50.7354 16.0126 53.5739C22.751 57.02 29.2895 60.3816 35.8587 63.697C37.2741 64.4047 38.551 63.697 39.8356 63.0354C44.8126 60.4662 49.7741 57.8354 54.851 55.4739C57.0433 54.4508 57.928 53.1662 57.6664 50.7816C57.4895 49.1354 57.8433 47.4277 57.5895 45.8047C56.9895 42.0047 58.5126 40.9662 62.2049 41.1893C64.7587 41.3585 65.8071 41.5385 65.6203 44.597C65.3842 48.4616 65.6203 53.8603 64.7741 53.8277C62.3818 53.7354 62.5356 51.8508 62.2895 50.2662C62.028 48.5508 62.6356 46.7277 61.5818 44.6816C59.7126 47.0739 60.8126 49.5585 60.4126 51.7739C59.651 55.3508 63.1972 54.6893 64.6126 56.1431Z" fill="var(--fill-0, #0E1112)"/>
<path id="Vector_3" d="M37.8501 42.2582C37.8501 44.1044 36.8501 44.189 35.627 43.3736C31.0117 40.2967 26.704 36.889 24.1886 31.7813C22.3732 28.1044 23.004 24.3197 25.604 21.889C28.204 19.4582 31.6963 19.1351 35.4347 21.4582C36.704 22.2274 37.3271 22.0351 38.3655 21.2967C39.5877 20.3433 41.0852 19.8103 42.6349 19.7771C44.1846 19.7437 45.7036 20.2121 46.9655 21.1121C48.3186 21.8937 49.3697 23.1074 49.95 24.5583C50.5303 26.0091 50.6062 27.6129 50.1655 29.1121C48.6886 34.7582 45.3578 39.0121 39.7424 41.2044C39.3934 40.9832 39.1234 40.6571 38.9714 40.2728C38.8194 39.8886 38.7931 39.4661 38.8963 39.0659C38.9835 38.8287 39.1187 38.612 39.2934 38.4294C39.4681 38.2467 39.6786 38.1021 39.9117 38.0044C41.8347 37.0813 42.9886 35.4274 44.2117 33.7582C45.304 32.2197 46.6732 30.8044 46.7963 28.7428C46.9117 26.9121 46.8886 25.0813 45.1347 23.9659C43.3809 22.8505 41.4886 23.089 39.8117 24.389C39.2481 24.9073 38.6229 25.3542 37.9501 25.7197C36.704 26.1197 35.7578 25.489 34.827 24.8197C32.5963 23.2274 30.2117 22.4197 27.904 24.489C25.5963 26.5582 26.4655 29.1044 27.5732 31.4659C27.8143 31.9053 28.0977 32.3201 28.4194 32.7044C28.6323 32.9655 28.6685 33.1745 28.845 33.4615C29.3857 34.6187 30.4211 35.6523 31.5194 36.3044C32.7117 37.1428 33.827 38.0582 35.004 38.9351C35.9194 40.089 37.4963 40.6505 37.8501 42.2582Z" fill="var(--fill-0, #1B100F)"/>
<path id="Vector_4" d="M64.6134 56.1432C59.0134 56.197 59.6903 56.8047 59.6288 51.4432C59.6288 49.4124 59.6827 47.3739 59.6288 45.3509C59.5673 43.8124 60.2519 43.397 61.6903 43.4124C63.1288 43.4278 63.3673 44.1278 63.3365 45.3201C63.2903 47.097 63.3365 48.8816 63.3365 50.6586C63.3365 51.897 63.0827 53.2816 64.7057 53.8355C64.6673 54.6047 64.6442 55.3739 64.6134 56.1432Z" fill="var(--fill-0, #66A5B7)"/>
<path id="Vector_5" d="M35.8058 16.2046C36.2827 12.8277 40.1212 9.55077 42.9673 10.0508C44.7596 10.3585 44.6827 11.5892 44.4596 12.92C43.8981 16.2354 40.4442 19.2662 37.5366 18.9277C35.8058 18.7277 35.4366 17.6969 35.8058 16.2046Z" fill="var(--fill-0, #1D211D)"/>
<path id="Vector_6" d="M39.437 39.1964C39.537 39.8656 39.6446 40.5349 39.7523 41.2041L37.8523 42.2579C36.8062 41.2194 35.037 40.9579 34.6523 39.2349C36.237 38.1195 37.8523 40.5426 39.437 39.1964Z" fill="var(--fill-0, #DD5553)"/>
<path id="Vector_7" d="M24.1445 50.1812C24.5676 49.5581 24.6061 49.412 24.683 49.412C25.5828 49.1274 26.5445 49.1013 27.4583 49.3366C28.3722 49.5718 29.2017 50.0591 29.8522 50.7428C30.3445 51.2274 29.6984 51.9197 29.4368 51.9735C27.2368 52.4581 26.1061 50.5351 24.1445 50.1812Z" fill="var(--fill-0, #DCDCDB)"/>
<path id="Vector_8" d="M39.4339 39.1964C37.8493 40.3271 36.2493 39.7502 34.6493 39.2348C32.7032 39.3733 32.1647 37.5271 30.957 36.6194C30.0416 35.7887 29.4185 34.6733 28.457 33.8964V33.9425C28.1632 33.4334 28.0344 32.8457 28.0881 32.2603C28.1418 31.6749 28.3755 31.1205 28.757 30.6733C28.9912 30.3956 29.2485 30.1383 29.5262 29.904C29.9295 29.6063 30.2586 29.2193 30.4878 28.7733C32.5416 24.4271 32.5416 24.4425 36.9185 25.6964C37.2724 25.7964 37.5724 25.4502 37.6878 25.0502C40.8108 21.8887 43.5185 21.304 46.0032 23.2502C48.4878 25.1964 48.7262 29.0117 46.5108 32.2656C45.8985 33.0758 45.2357 33.8466 44.5262 34.5733C42.9032 35.7579 41.7493 37.4579 40.0647 38.5656L39.4339 39.1964Z" fill="var(--fill-0, #D95654)"/>
<path id="Vector_9" d="M29.3436 30.7426L28.4897 33.9426C26.6666 32.6965 25.982 30.7657 25.5666 28.7657C25.2731 27.7065 25.3286 26.5809 25.7249 25.5556C26.1211 24.5303 26.837 23.6599 27.7666 23.0734C28.7139 22.4067 29.8493 22.0599 31.0073 22.0834C32.1654 22.1069 33.2857 22.4996 34.2051 23.2042C35.3128 23.9734 36.0051 25.5119 37.7359 25.0503C37.5662 25.3484 37.3678 25.6292 37.1436 25.8888C32.9513 23.9119 31.9513 26.6119 31.2205 29.8349C31.1436 30.1657 30.4513 30.3503 30.0205 30.6042C28.9589 29.4119 29.5743 28.0272 29.5974 26.4349C28.4051 28.0042 29.2897 29.3965 29.3436 30.7426Z" fill="var(--fill-0, #D95654)"/>
<path id="Vector_10" d="M40.1133 38.5348C41.2287 36.7886 42.421 35.1194 44.5748 34.5425C43.5748 36.4117 42.2825 37.9656 40.1133 38.5348Z" fill="var(--fill-0, #D25252)"/>
<path id="Vector_11" d="M28.459 33.8965C29.1055 34.0456 29.6913 34.3883 30.138 34.879C30.5847 35.3697 30.8711 35.9849 30.959 36.6426C30.3689 36.3922 29.8401 36.0171 29.4085 35.5431C28.977 35.0691 28.6531 34.5074 28.459 33.8965Z" fill="var(--fill-0, #D95654)"/>
<path id="Vector_12" d="M38.1914 16.1276C38.6991 14.4199 39.2322 13.7368 40.9606 13.143C41.1553 13.0761 41.9783 12.9075 41.9245 13.0768C41.4629 14.4768 40.2376 16.2199 38.1914 16.1276Z" fill="var(--fill-0, #78A266)"/>
<path id="Vector_13" d="M29.3443 30.7432C27.2905 28.0585 27.3597 25.7201 29.529 24.7739C29.8006 24.6116 30.114 24.5331 30.4302 24.5481C30.7463 24.5632 31.0509 24.6712 31.3059 24.8585C31.4128 24.9268 31.5022 25.0192 31.5668 25.1284C31.6314 25.2376 31.6693 25.3605 31.6776 25.4872C31.6858 25.6137 31.6641 25.7405 31.6143 25.8572C31.5643 25.9738 31.4877 26.0771 31.3905 26.1585C29.5059 27.2509 30.6905 29.2355 30.0213 30.6124C29.7882 30.5982 29.5553 30.6432 29.3443 30.7432Z" fill="var(--fill-0, #1B100F)"/>
</g>
<defs>
<clipPath id="clip0_0_47">
<rect width="80" height="80" fill="white"/>
</clipPath>
</defs>
</svg>
