<svg width="697" height="62" viewBox="0 0 697 62" fill="none" xmlns="http://www.w3.org/2000/svg">
<g clip-path="url(#clip0_300_5261)">
<path d="M37.7287 39.8709C35.631 38.3213 33.0559 37.5472 30.4464 37.6816C28.5096 37.6561 26.5797 37.9169 24.7199 38.4553C23.0433 38.943 21.419 39.5936 19.8705 40.3977V86.1921C18.6767 86.5198 17.4594 86.7565 16.2294 86.8999C14.5067 87.1275 12.7703 87.2374 11.0325 87.2291C7.12649 87.2291 4.30736 86.6036 2.57505 85.3526C0.842746 84.1015 -0.0123727 81.6653 0.00969491 78.0439V38.0602C-0.076981 36.1482 0.419146 34.2548 1.43305 32.6281C2.5386 31.1067 3.90574 29.7915 5.47142 28.7433C8.74457 26.5412 12.3798 24.9256 16.2128 23.9696C20.94 22.7113 25.818 22.1021 30.7112 22.1589C40.1672 22.1589 47.4716 24.2275 52.6244 28.3647C57.7771 32.5019 60.359 38.3949 60.3701 46.0438V86.1426C59.1284 86.4571 57.8681 86.6936 56.5965 86.8505C54.8738 87.0781 53.1374 87.1881 51.3996 87.1797C47.4936 87.1797 44.6966 86.5542 43.0084 85.3032C41.3533 84.0521 40.4596 81.6159 40.4596 77.9945V46.5541C40.5445 45.307 40.3428 44.057 39.8696 42.8991C39.3964 41.7411 38.6643 40.7055 37.7287 39.8709Z" fill="#4C8444"/>
<path d="M100.825 22.1583C104.984 22.1132 109.134 22.5692 113.183 23.5162C116.595 24.2902 119.821 25.7251 122.676 27.7389C125.276 29.6426 127.369 32.1498 128.771 35.0418C130.271 38.3016 131.006 41.8577 130.92 45.4413V74.868C131.024 76.8228 130.395 78.7466 129.154 80.2664C127.935 81.6349 126.501 82.7981 124.907 83.7109C121.811 85.5143 118.434 86.7905 114.915 87.4865C110.534 88.3988 106.067 88.8374 101.591 88.7947C92.5974 88.7947 85.4415 87.078 80.1231 83.6446C74.8047 80.2112 72.14 74.9839 72.1289 67.9626C72.1289 61.9845 73.9276 57.414 77.5083 54.3008C81.0891 51.1875 86.5851 49.2169 93.9964 48.4386L111.484 46.6171V45.1929C111.556 43.9648 111.282 42.7411 110.694 41.6589C110.105 40.5767 109.226 39.6789 108.153 39.0658C105.097 37.5953 101.716 36.9228 98.3266 37.1118C95.0431 37.1109 91.7716 37.5057 88.5837 38.2875C85.6031 38.9745 82.6799 39.888 79.84 41.0199C78.7101 40.2178 77.7998 39.1476 77.1919 37.9066C76.4496 36.479 76.0667 34.8936 76.0761 33.2865C76.0761 29.4667 78.0857 26.7067 82.105 25.0066C84.9617 23.9815 87.9211 23.2654 90.932 22.8704C94.2083 22.3992 97.5143 22.1612 100.825 22.1583ZM101.608 74.0731C103.521 74.0787 105.43 73.8845 107.303 73.4935C108.794 73.2399 110.23 72.7359 111.55 72.0031V60.0304L100.825 60.9412C98.4631 61.063 96.1585 61.708 94.0797 62.829C93.269 63.2606 92.5969 63.9104 92.1404 64.704C91.6838 65.4977 91.4613 66.4032 91.4982 67.3168C91.4579 68.2717 91.6504 69.2222 92.0593 70.0872C92.4681 70.9522 93.0813 71.7062 93.8465 72.2847C95.4454 73.477 98.0268 74.0731 101.608 74.0731Z" fill="#4C8444"/>
<path d="M168.033 71.3014C169.999 72.5127 172.291 73.0938 174.599 72.9661C176.009 72.9575 177.415 72.8013 178.792 72.5C180.097 72.2573 181.373 71.8836 182.602 71.3846C183.406 72.2853 184.071 73.3009 184.573 74.3978C185.408 76.3545 185.584 78.528 185.075 80.5927C184.566 82.6574 183.399 84.5023 181.75 85.8511C179.344 87.8154 175.161 88.7976 169.202 88.7976C161.851 88.7976 156.12 87.1329 152.01 83.8034C147.9 80.474 145.839 75.0026 145.828 67.3893V8.57472C146.797 8.30836 148.067 8.02534 149.637 7.72569C151.328 7.4024 153.046 7.24627 154.767 7.25957C158.61 7.25957 161.45 7.94211 163.121 9.29053C164.791 10.639 165.677 13.1027 165.677 16.6819V25.1886H183.805C184.321 26.2648 184.757 27.3777 185.108 28.5181C185.559 29.8938 185.784 31.3327 185.776 32.7798C185.88 33.8576 185.765 34.9453 185.438 35.9778C185.111 37.0104 184.578 37.9666 183.872 38.7894C183.204 39.4173 182.416 39.9035 181.554 40.2183C180.693 40.5331 179.776 40.67 178.859 40.6206H165.66V66.0575C165.578 67.0602 165.752 68.0673 166.167 68.9845C166.582 69.9017 167.224 70.6988 168.033 71.3014Z" fill="#4C8444"/>
<path d="M251.809 83.0977C248.625 85.0374 245.155 86.443 241.532 87.2605C237.103 88.3277 232.563 88.8427 228.012 88.7941C223.717 88.8451 219.433 88.3296 215.269 87.2605C211.696 86.3663 208.347 84.7185 205.438 82.4236C202.688 80.2034 200.503 77.3422 199.067 74.0812C197.462 70.2322 196.688 66.0765 196.8 61.8963V23.3528C198.043 23.0247 199.303 22.7603 200.573 22.5607C202.291 22.2782 204.029 22.1429 205.769 22.1562C209.675 22.1562 212.389 22.8303 214.16 24.1449C215.931 25.4594 216.692 27.9874 216.692 31.6951V61.7614C216.692 65.7388 217.69 68.587 219.687 70.3061C222.112 72.1702 225.111 73.0907 228.144 72.9015C230.048 72.9405 231.949 72.7367 233.804 72.2947C234.997 72.0228 236.153 71.604 237.246 71.0476V23.3528C240.131 22.551 243.109 22.1485 246.1 22.1562C249.989 22.1562 252.819 22.8303 254.54 24.1449C256.261 25.4594 257.155 27.9874 257.155 31.6951V73.5587C257.21 75.4953 256.74 77.4098 255.797 79.0924C254.854 80.775 253.475 82.1608 251.809 83.0977Z" fill="#4C8444"/>
<path d="M292.165 86.191C290.959 86.5191 289.729 86.756 288.486 86.8995C286.745 87.1274 284.991 87.2375 283.235 87.2291C279.288 87.2291 276.439 86.6029 274.689 85.3505C272.939 84.0982 272.063 81.6594 272.063 78.0341V38.4857C271.996 36.2703 272.64 34.0906 273.903 32.2568C275.269 30.4105 277.012 28.8668 279.02 27.7252C282.28 25.8639 285.803 24.4921 289.473 23.655C293.666 22.648 297.967 22.1445 302.283 22.1554C311.392 22.1554 315.952 25.182 315.963 31.2351C315.981 32.5969 315.76 33.9514 315.311 35.2394C314.929 36.3212 314.441 37.3641 313.856 38.3538C311.436 37.9051 308.976 37.7063 306.514 37.7606C303.945 37.7611 301.384 38.0654 298.888 38.6669C296.557 39.1873 294.307 40.0131 292.199 41.1222L292.165 86.191Z" fill="#4C8444"/>
<path d="M348.579 22.1583C352.738 22.1132 356.887 22.5692 360.936 23.5162C364.349 24.2902 367.575 25.7251 370.43 27.7389C373.03 29.6426 375.123 32.1498 376.525 35.0418C378.025 38.3016 378.759 41.8577 378.674 45.4413V74.868C378.778 76.8228 378.149 78.7466 376.908 80.2664C375.689 81.6349 374.255 82.7981 372.661 83.7109C369.565 85.5143 366.188 86.7905 362.669 87.4865C358.288 88.3988 353.82 88.8374 349.345 88.7947C340.351 88.7947 333.195 87.078 327.877 83.6446C322.559 80.2112 319.894 74.9839 319.883 67.9626C319.883 61.9845 321.682 57.414 325.262 54.3008C328.843 51.1875 334.339 49.2169 341.75 48.4386L359.154 46.6171V45.1929C359.226 43.9648 358.953 42.7411 358.364 41.6589C357.776 40.5767 356.896 39.6789 355.823 39.0658C352.768 37.5953 349.386 36.9228 345.997 37.1118C342.714 37.1109 339.442 37.5057 336.254 38.2875C333.33 38.9826 330.463 39.896 327.677 41.0199C326.526 40.2035 325.604 39.1093 324.996 37.8404C324.254 36.4127 323.871 34.8274 323.88 33.2203C323.88 29.4005 325.89 26.6405 329.909 24.9404C332.766 23.9153 335.725 23.1991 338.736 22.8042C341.997 22.3575 345.287 22.1416 348.579 22.1583ZM349.361 74.0731C351.275 74.0787 353.184 73.8845 355.057 73.4935C356.548 73.2399 357.984 72.7359 359.304 72.0031V60.0304L348.579 60.9412C346.217 61.063 343.912 61.708 341.834 62.829C341.029 63.2651 340.364 63.9169 339.913 64.7102C339.463 65.5035 339.245 66.4066 339.285 67.3168C339.245 68.2717 339.438 69.2222 339.846 70.0872C340.255 70.9522 340.869 71.7062 341.634 72.2847C343.199 73.477 345.781 74.0731 349.361 74.0731Z" fill="#4C8444"/>
<path d="M405.157 87.2277C401.299 87.2277 398.536 86.5966 396.868 85.3345C395.201 84.0723 394.367 81.6144 394.367 77.9607V1.36648C395.573 1.03792 396.795 0.77733 398.029 0.585917C399.749 0.315677 401.487 0.187963 403.228 0.203975C407.004 0.203975 409.767 0.851642 411.401 2.14703C413.036 3.44243 413.968 5.93358 413.968 9.58725V86.2147C412.742 86.5352 411.497 86.7737 410.241 86.9288C408.555 87.1451 406.856 87.2449 405.157 87.2277Z" fill="#4C8444"/>
<path d="M481.375 68.1708C481.501 71.0953 480.912 74.006 479.661 76.6487C478.41 79.2914 476.534 81.5855 474.197 83.3303C469.412 86.974 462.362 88.7958 453.046 88.7958C449.706 88.8208 446.37 88.5524 443.076 87.9935C440.388 87.5737 437.771 86.7806 435.3 85.6369C433.321 84.7333 431.576 83.3836 430.199 81.6924C428.982 80.1175 428.337 78.1712 428.371 76.1768C428.325 74.4573 428.732 72.7562 429.551 71.2462C430.298 69.9241 431.325 68.783 432.559 67.9034C435.301 69.4933 438.189 70.8142 441.182 71.8479C444.8 73.0363 448.592 73.6014 452.398 73.5193C458.579 73.5193 461.686 71.7643 461.686 68.2711C461.719 67.6053 461.584 66.9418 461.294 66.3426C461.003 65.7434 460.566 65.2281 460.024 64.8447C458.316 63.8113 456.436 63.0978 454.475 62.7388L449.257 61.5688C442.113 60.0868 436.801 57.7859 433.323 54.666C431.551 53.0076 430.165 50.9763 429.263 48.7171C428.361 46.4578 427.966 44.0262 428.106 41.5956C428.021 38.6963 428.666 35.8225 429.978 33.2399C431.291 30.6573 433.23 28.4495 435.616 26.8205C440.612 23.1769 447.335 21.3607 455.787 21.3718C458.76 21.356 461.728 21.5964 464.66 22.0905C467.146 22.4797 469.567 23.2108 471.855 24.2633C473.69 25.0897 475.314 26.3241 476.607 27.8735C477.773 29.2794 478.403 31.0569 478.385 32.8877C478.418 34.4294 478.093 35.9577 477.436 37.3506C476.778 38.7436 475.805 39.9626 474.596 40.9104C473.614 40.3404 472.585 39.854 471.522 39.4563C470.176 38.9381 468.714 38.4535 467.152 38.0189C465.513 37.5706 463.848 37.219 462.168 36.9659C460.568 36.7103 458.952 36.5762 457.333 36.5648C454.899 36.4494 452.47 36.8775 450.221 37.8183C449.471 38.1117 448.827 38.6261 448.374 39.2943C447.92 39.9625 447.678 40.7531 447.679 41.5622C447.655 42.1264 447.773 42.6875 448.023 43.1931C448.273 43.6987 448.646 44.1324 449.108 44.4538C450.719 45.4128 452.485 46.0803 454.325 46.426L459.31 47.6127C467.241 49.3509 472.901 51.8859 476.291 55.2175C477.988 56.9019 479.316 58.924 480.192 61.1545C481.067 63.385 481.471 65.7747 481.375 68.1708Z" fill="#4C8444"/>
<path d="M510.676 63.8042C511.156 65.4662 511.975 67.0123 513.082 68.3463C514.19 69.6804 515.562 70.774 517.113 71.5589C520.428 73.1417 524.071 73.9267 527.748 73.8504C531.267 73.8766 534.769 73.3671 538.132 72.3394C540.887 71.5481 543.536 70.4332 546.025 69.0183C547.361 69.8811 548.5 71.0124 549.369 72.3394C550.245 73.7088 550.704 75.3002 550.69 76.9224C550.721 78.8224 550.069 80.6711 548.851 82.1365C547.477 83.73 545.763 85.0004 543.834 85.8561C541.407 86.9402 538.841 87.6889 536.209 88.0812C533.017 88.5714 529.791 88.8101 526.561 88.7952C521.698 88.845 516.86 88.1161 512.231 86.6365C508.053 85.3169 504.201 83.1386 500.927 80.2435C497.684 77.2891 495.148 73.6525 493.503 69.5994C491.622 64.8428 490.707 59.7638 490.81 54.6546C490.696 49.6902 491.612 44.7555 493.503 40.1582C495.147 36.29 497.611 32.8185 500.726 29.9792C503.73 27.2966 507.268 25.2712 511.11 24.0344C514.994 22.7885 519.051 22.1554 523.133 22.1581C527.317 22.1057 531.477 22.7859 535.423 24.1673C538.966 25.4195 542.227 27.3488 545.022 29.8463C547.702 32.2915 549.828 35.2745 551.259 38.5973C552.773 42.1003 553.536 45.8779 553.499 49.6897C553.586 50.8306 553.432 51.977 553.046 53.0551C552.66 54.1333 552.051 55.1193 551.259 55.9499C549.481 57.4698 547.285 58.4244 544.955 58.6898L510.676 63.8042ZM523.15 36.9202C519.683 36.8083 516.31 38.0481 513.752 40.3741C511.094 43.0397 509.527 46.59 509.355 50.3373L534.437 46.3022C534.186 43.57 532.856 41.0475 530.738 39.2863C528.62 37.5251 525.886 36.6684 523.133 36.9036L523.15 36.9202Z" fill="#4C8444"/>
<path d="M582.05 63.8035C582.536 65.463 583.359 67.0066 584.469 68.3401C585.578 69.6735 586.95 70.7686 588.501 71.5584C591.829 73.1409 595.485 73.9258 599.175 73.85C602.702 73.8762 606.211 73.3666 609.582 72.3389C612.342 71.5476 614.997 70.4327 617.491 69.0177C618.83 69.8805 619.972 71.0119 620.842 72.3389C621.713 73.7114 622.172 75.3008 622.166 76.922C622.197 78.8221 621.543 80.6708 620.323 82.1363C618.942 83.7262 617.226 84.996 615.296 85.856C612.863 86.9402 610.292 87.6888 607.654 88.0811C604.45 88.572 601.211 88.8107 597.969 88.7952C593.102 88.8449 588.258 88.116 583.625 86.6364C579.438 85.3168 575.579 83.1385 572.297 80.2432C569.043 77.2932 566.5 73.6552 564.857 69.5989C562.965 64.8443 562.048 59.7635 562.159 54.6536C562.036 49.6884 562.955 44.7519 564.857 40.1568C566.5 36.2852 568.969 32.8123 572.096 29.9774C575.106 27.2948 578.651 25.2693 582.502 24.0325C586.395 22.7865 590.46 22.1534 594.551 22.1561C598.699 22.1277 602.821 22.8132 606.733 24.182C610.283 25.4342 613.55 27.3636 616.351 29.8612C619.037 32.3065 621.167 35.2895 622.602 38.6125C624.119 42.1156 624.883 45.8932 624.847 49.7051C624.934 50.8461 624.779 51.9925 624.393 53.0707C624.006 54.1489 623.396 55.1349 622.602 55.9655C620.82 57.4855 618.62 58.44 616.284 58.7055L582.05 63.8035ZM594.567 36.9187C591.093 36.805 587.712 38.045 585.15 40.3727C582.486 43.0383 580.916 46.5887 580.743 50.3362L605.878 46.3009C605.627 43.5687 604.294 41.0461 602.172 39.2849C600.049 37.5236 597.309 36.6668 594.551 36.902L594.567 36.9187Z" fill="#4C8444"/>
<path d="M666.428 21.7293C668.331 21.7214 670.233 21.8722 672.112 22.1802C673.78 22.451 675.42 22.8701 677.015 23.4326V1.37323C677.962 1.12274 679.225 0.855556 680.804 0.588373C682.53 0.314583 684.275 0.186144 686.023 0.204329C689.945 0.204329 692.754 0.85556 694.449 2.15808C696.144 3.4606 696.992 5.95433 696.992 9.63924V73.563C697.058 75.4196 696.609 77.2581 695.696 78.8732C694.623 80.5131 693.19 81.8842 691.507 82.881C688.538 84.598 685.381 85.9652 682.1 86.9555C677.821 88.2425 673.37 88.862 668.904 88.7924C657.935 88.7924 649.292 86.0093 642.977 80.4429C636.661 74.8766 633.503 66.5271 633.503 55.3944C633.384 50.2658 634.253 45.1624 636.063 40.3654C637.602 36.401 639.984 32.822 643.043 29.8784C646.032 27.107 649.581 25.0166 653.447 23.7499C657.635 22.3677 662.02 21.6851 666.428 21.7293ZM677.148 39.4469C675.942 38.8941 674.698 38.4308 673.425 38.0609C670.737 37.3312 667.911 37.2913 665.204 37.9449C662.498 38.5985 659.998 39.9246 657.935 41.8015C655.142 44.6904 653.763 49.2826 653.763 55.5782C653.763 61.8737 655.076 66.015 657.735 68.7704C659.19 70.1892 660.922 71.2896 662.821 72.0024C664.721 72.7152 666.747 73.0248 668.771 72.9117C670.425 72.9351 672.074 72.7328 673.674 72.3105C674.887 72.0119 676.056 71.5514 677.148 70.9412V39.4469Z" fill="#4C8444"/>
</g>
<defs>
<clipPath id="clip0_300_5261">
<rect width="697" height="62" fill="white"/>
</clipPath>
</defs>
</svg>
