<svg width="24" height="24" viewBox="0 0 24 24" fill="none" xmlns="http://www.w3.org/2000/svg">
<path d="M10.115 21.811C10.721 22.311 11.353 22.768 12 23.214C12.6484 22.7739 13.2773 22.3058 13.885 21.811C14.898 20.9792 15.8513 20.0773 16.738 19.112C18.782 16.877 21 13.637 21 10C21 8.8181 20.7672 7.64778 20.3149 6.55585C19.8626 5.46392 19.1997 4.47177 18.364 3.63604C17.5282 2.80031 16.5361 2.13738 15.4442 1.68508C14.3522 1.23279 13.1819 1 12 1C10.8181 1 9.64778 1.23279 8.55585 1.68508C7.46392 2.13738 6.47177 2.80031 5.63604 3.63604C4.80031 4.47177 4.13738 5.46392 3.68508 6.55585C3.23279 7.64778 3 8.8181 3 10C3 13.637 5.218 16.876 7.262 19.112C8.14862 20.0777 9.10197 20.9789 10.115 21.811ZM12 13.25C11.138 13.25 10.3114 12.9076 9.7019 12.2981C9.09241 11.6886 8.75 10.862 8.75 10C8.75 9.13805 9.09241 8.3114 9.7019 7.7019C10.3114 7.09241 11.138 6.75 12 6.75C12.862 6.75 13.6886 7.09241 14.2981 7.7019C14.9076 8.3114 15.25 9.13805 15.25 10C15.25 10.862 14.9076 11.6886 14.2981 12.2981C13.6886 12.9076 12.862 13.25 12 13.25Z" fill="#DAF9C7"/>
</svg>
