<svg preserveAspectRatio="none" width="100%" height="100%" overflow="visible" style="display: block;" viewBox="0 0 195 514" fill="none" xmlns="http://www.w3.org/2000/svg">
<g id="Wheat plant svg" clip-path="url(#clip0_0_62)">
<path id="Vector" d="M70.9094 218.19L71.4979 217.936C71.847 219.365 72.0559 220.564 73.0467 221.714L73.3619 222.503C73.13 224.696 72.8153 225.733 71.204 227.318C69.5012 235.933 68.2325 245.257 67.0401 253.975C65.2878 266.951 63.6502 279.944 62.1277 292.949L57.7514 331.113C56.6554 340.148 55.6922 349.198 54.862 358.263L55.3744 358.931C58.0263 341.069 61.5364 323.345 65.8929 305.822C66.5479 307.119 66.9932 308.126 68.2388 308.703C69.4605 309.27 71.965 314.357 72.4835 315.607C72.3651 316.621 71.3863 323.393 71.4169 323.659C71.0213 325.458 69.1157 330.48 68.4072 332.538C66.8177 337.219 65.3189 341.927 63.9114 346.666C59.2315 362.67 55.4678 378.929 52.6388 395.363C51.1909 403.494 49.5284 412.193 49.4715 420.413L49.0262 419.828C48.3305 422.812 47.7325 428.569 47.6609 431.777L46.9783 431.937C46.6525 428.168 46.0226 423.808 45.6142 419.961C45.0332 420.997 45.377 421.572 44.9185 422.468L44.8334 422.446L45.0405 421.903L44.7428 421.675L44.7617 421.085C44.2547 417.74 43.9091 414.49 43.885 411.104C43.2124 394.494 44.646 377.621 44.4409 360.969C44.3272 351.745 44.3385 342.592 42.4963 333.517C36.9109 306.002 26.74 282.79 3.61706 265.736C-0.101654 263 -3.97924 260.488 -7.99512 258.214C-9.81696 257.167 -11.8943 256.274 -13.5703 255.172C-13.053 255.032 -9.34763 256.505 -8.69886 256.793C11.6847 265.836 28.8831 280.752 39.4206 300.544C42.22 305.802 44.025 310.487 46.1265 316.087C44.3011 292.989 39.6937 270.949 35.0815 248.332C33.8617 242.35 32.4982 235.962 31.5763 229.948L32.0105 229.768C37.3759 253.064 42.0481 276.513 46.0205 300.087C46.6686 304.143 47.4767 309.702 47.7608 313.803C48.2472 320.815 48.1747 325.175 49.9526 332.159C50.0465 331.223 50.2267 328.914 50.3968 328.078L50.5964 329.529L50.7339 329.547C51.0667 325.067 51.3681 320.584 51.6379 316.102C51.7795 313.444 51.7988 310.131 52.1404 307.564C52.2169 308.387 52.3989 309.712 53.0886 310.179C53.8269 309.739 54.6762 307.669 55.4525 306.64C56.2988 306.72 56.0897 306.572 56.5648 307.064C56.9177 306.974 57.0658 306.956 57.4194 306.911C58.676 304.615 57.9776 293.923 58.9627 290.884C59.0126 295.183 58.7629 302.797 58.1229 306.969L58.7217 307.418C59.307 301.209 60.2677 294.453 61.0558 288.246C62.6929 275.378 64.4375 262.523 66.2892 249.685C67.3418 242.36 68.4862 234.949 69.525 227.613C69.6774 226.537 69.6615 226.542 69.1664 225.801L69.773 225.429C70.8881 225.85 70.613 225.926 71.65 225.724C72.3999 225.119 72.6223 223.879 72.9059 222.915C71.7974 221.167 71.4741 220.115 70.9094 218.19Z" fill="var(--fill-0, #909827)"/>
<path id="Vector_2" d="M43.8867 411.104C44.4971 412.027 45.6408 415.275 45.4207 416.304C45.4566 416.991 45.6481 419.471 45.616 419.96C45.0349 420.997 45.3788 421.572 44.9202 422.468L44.8352 422.445L45.0422 421.903L44.7446 421.675L44.7634 421.085C44.2564 417.739 43.9108 414.489 43.8867 411.104Z" fill="var(--fill-0, #909827)"/>
<path id="Vector_3" d="M44.7649 421.085C45.0011 419.549 44.6992 417.764 45.0636 416.211L45.4222 416.304C45.4581 416.991 45.6496 419.471 45.6175 419.961C45.0365 420.997 45.3803 421.572 44.9218 422.468L44.8367 422.445L45.0438 421.903L44.7461 421.675L44.7649 421.085Z" fill="var(--fill-0, #D9DEA0)"/>
<path id="Vector_4" d="M58.1227 306.969L58.7216 307.418C58.6458 311.358 57.4597 314.245 57.7232 318.767L57.2393 319.234L57.1211 319.086C57.1793 316.072 57.7566 309.988 58.1227 306.969Z" fill="var(--fill-0, #D9DEA0)"/>
<path id="Vector_5" d="M55.3772 358.931C55.3094 359.917 54.557 365.142 54.2476 365.883C54.1617 364.445 54.5098 359.659 54.8647 358.263L55.3772 358.931Z" fill="var(--fill-0, #D9DEA0)"/>
<path id="Vector_6" d="M65.8945 305.821C68.9592 294.289 72.3514 282.611 76.8012 271.538C81.5919 259.619 88.0254 248.475 93.5283 236.749C96.6216 230.189 99.5881 223.57 102.426 216.895C104.534 212.028 107.905 202.654 111.531 199.651C114.758 196.977 129.379 210.444 131.009 213.053C132.711 215.779 130.592 226.233 130.161 229.6C129.854 232.067 129.629 234.543 129.488 237.025C129.204 241.869 129.169 246.554 130.519 251.247C119.781 241.968 126.019 220.276 120.208 215.388C119.465 214.753 118.493 214.454 117.522 214.563C111.154 215.246 109.444 230.999 107.863 236.528C106.667 240.595 105.321 244.617 103.829 248.585C97.2495 266.544 89.1154 283.655 80.5822 300.719C78.1929 305.498 76.499 311.408 74.3098 316.335C73.4251 318.478 72.3963 321.691 71.4185 323.658C71.3879 323.392 72.3667 316.621 72.4852 315.607C71.9667 314.357 69.4622 309.27 68.2404 308.703C66.9948 308.125 66.5496 307.119 65.8945 305.821Z" fill="var(--fill-0, #909827)"/>
<path id="Vector_7" d="M84.5862 137.152C85.507 128.907 88.4781 120.071 89.1996 111.639C89.4448 108.772 90.0677 105.115 90.6985 102.334C90.9509 104.008 88.1679 121.166 87.7018 124.112C88.1086 124.817 87.876 124.646 88.5386 124.845C88.725 125.517 88.4869 125.895 88.2324 126.564C87.6702 128.862 88.2585 132.122 88.8229 134.394C89.5244 135.511 89.8582 136.083 90.7911 137.051C91.3776 137.55 92.5532 138.799 93.1076 138.762L93.2414 138.037L94.0744 137.4L94.2224 140.635L94.7954 141.444C94.315 141.97 93.8984 142.803 93.5915 142.987C92.7856 143.972 92.3105 144.539 91.6589 145.658C92.502 145.017 93.2301 145.049 94.2982 144.947C95.0316 144.046 95.8869 143.188 96.6933 142.347L96.4983 143.605C96.0824 144.444 96.2423 145.956 96.2679 146.951C95.9592 146.746 95.734 146.298 95.5323 145.97L95.0775 145.943C94.4014 146.74 93.2521 148.014 92.7304 148.859C92.8175 149.844 92.9086 150.245 92.5509 151.17C92.1358 152.707 91.8522 153.786 91.8045 155.418L91.231 155.328C91.1093 156.348 90.8935 157.711 90.9768 158.705L89.8755 159.47L89.4664 159.254C88.4025 159.96 87.82 160.575 87.4501 161.819L87.5926 162.424C87.3652 163.579 87.1594 164.739 86.9757 165.902L86.9818 167.224C85.5555 168.075 86.9326 169.392 86.1164 170.634L85.376 170.521L84.8946 170.428C84.0599 171.086 82.3768 172.959 82.3098 174.036C82.2579 176.326 82.0496 178.399 82.7106 180.597L81.8059 180.956L82.3143 183.12C82.7784 184.459 82.9415 185.173 83.2161 186.531C83.0537 187.522 82.9927 187.904 83.0113 188.903L82.8429 190.136C81.7233 192.534 81.4806 193.066 79.4261 194.798C80.2666 195.203 80.4433 195.248 81.3526 195.432L80.3213 195.699C79.9381 196.647 80.3183 197.394 80.5992 198.507C86.0413 195.503 86.4173 197.024 91.3756 192.311C89.1123 198.14 87.1243 204.84 81.3182 208.098C80.5613 208.414 78.5755 209.153 78.0708 209.639C78.4202 210.361 78.3283 210.48 78.9435 210.827C80.3821 210.54 82.747 209.359 84.5882 208.769C86.6542 207.457 87.2202 206.95 88.9677 205.137C87.3369 209.74 86.0637 213.793 83.0291 217.665C81.4234 219.387 80.0435 220.773 77.6848 221.495L77.5076 221.567C76.137 222.26 74.8847 222.315 73.3655 222.503L73.0503 221.714C72.0594 220.564 71.8506 219.365 71.5015 217.936C71.5542 216.975 71.5856 216.001 71.6252 215.038L71.622 214.558L71.1554 214.068C70.8015 212.854 70.47 212.696 69.5647 211.804L70.394 211.033L69.0111 208.97C68.3294 207.756 68.0877 206.586 67.8418 205.249C67.7359 206.203 67.8711 206.418 67.3737 207.072L67.0432 207.16C65.4756 202.606 66.1251 197.386 66.3434 192.563C66.9455 193.989 67.3712 194.991 68.1289 196.349L68.6175 197.17C69.5866 198.354 71.4312 200.04 72.587 201.154L73.2694 198.287C73.0423 198.048 72.8201 197.804 72.6036 197.555C68.546 192.873 69.2952 184.679 69.7211 178.902L71.4147 182.501C72.3365 183.68 72.8204 184.321 73.9392 185.342C74.4949 185.916 75.2612 186.888 76.0844 186.704C76.1707 185.966 75.9556 185.706 75.6198 185.036C71.1479 179.428 73.3587 171.539 74.6154 165.199C75.0215 166.461 75.4406 167.718 75.8728 168.971L76.134 169.724C76.8624 170.996 78.6132 173.129 79.6515 174.206C79.9361 172.747 79.7504 172.723 79.1648 171.349C76.5866 165.299 78.2538 159.789 79.6003 153.448C80.1158 155.501 80.4177 156.592 81.2045 158.546C82.1991 159.805 83.1666 161.06 84.2416 162.252C85.8933 161.583 82.8228 156.935 82.7626 155.164C82.555 149.056 84.0722 143.308 84.5862 137.152Z" fill="var(--fill-0, #909827)"/>
<path id="Vector_8" d="M71.6205 214.557C72.3071 210.596 74.3154 208.016 76.5707 204.781C76.5173 207.309 76.2432 208.489 77.4027 210.689C77.3932 210.293 77.4632 209.604 77.3919 209.276L77.6803 209.618L78.0693 209.639C78.4187 210.361 78.3268 210.479 78.942 210.827C80.3805 210.539 82.7455 209.359 84.5867 208.768C86.6527 207.456 87.2186 206.949 88.9662 205.137C87.3354 209.74 86.0622 213.793 83.0276 217.664C81.4218 219.387 80.042 220.773 77.6833 221.494L77.5061 221.567C76.1355 222.26 74.8832 222.315 73.364 222.502L73.0488 221.714C72.0579 220.564 71.8491 219.365 71.5 217.935C71.5527 216.975 71.5841 216 71.6237 215.038L71.6205 214.557Z" fill="var(--fill-0, #909827)"/>
<path id="Vector_9" d="M71.6205 214.557C72.3071 210.596 74.3154 208.016 76.5707 204.781C76.5173 207.309 76.2432 208.489 77.4027 210.689C77.4778 211.254 77.539 211.977 77.725 212.499C77.7993 213.771 77.8678 214.522 77.7034 215.806C76.8897 218.624 75.9834 220.642 73.0488 221.714C72.0579 220.564 71.8491 219.365 71.5 217.935C71.5527 216.975 71.5841 216 71.6237 215.038L71.6205 214.557Z" fill="var(--fill-0, #D8C808)"/>
<path id="Vector_10" d="M71.6211 214.557C72.3078 210.596 74.3161 208.016 76.5714 204.781C76.5179 207.309 76.2438 208.489 77.4033 210.689C77.4784 211.254 77.5396 211.977 77.7256 212.499C77.7999 213.771 77.8684 214.522 77.704 215.806C76.2305 214.291 77.0477 210.265 75.582 209.349C73.9519 209.933 73.0409 213.596 71.6244 215.038L71.6211 214.557Z" fill="var(--fill-0, #B7BB3F)"/>
<path id="Vector_11" d="M78.8705 212.691C81.3429 212.462 80.6427 213.008 83.3281 211.609C82.5265 214.797 80.981 216.672 80.4236 218.682C81.3472 217.943 81.2573 217.682 82.5702 216.844L83.0257 217.665C81.42 219.387 80.0401 220.773 77.6814 221.495L77.5042 221.567C76.1336 222.26 74.8813 222.315 73.3621 222.503L73.0469 221.714C75.9815 220.643 76.8878 218.624 77.7015 215.806C77.8659 214.522 77.7974 213.771 77.7231 212.499C77.9628 212.53 78.7026 212.601 78.8705 212.691Z" fill="var(--fill-0, #D8C808)"/>
<path id="Vector_12" d="M77.7231 212.499C77.9628 212.53 78.7026 212.601 78.8705 212.691C78.5026 216.835 77.6551 218.791 74.9229 221.941C75.8152 221.683 76.6155 221.349 77.5042 221.567C76.1336 222.26 74.8813 222.315 73.3621 222.502L73.0469 221.714C75.9815 220.642 76.8878 218.624 77.7015 215.806C77.8659 214.522 77.7974 213.771 77.7231 212.499Z" fill="var(--fill-0, #909827)"/>
<path id="Vector_13" d="M80.4258 218.682C81.3494 217.943 81.2595 217.682 82.5724 216.844L83.0279 217.665C81.4221 219.387 80.0423 220.773 77.6836 221.495C78.5311 220.198 80.2752 220.594 80.4258 218.682Z" fill="var(--fill-0, #909827)"/>
<path id="Vector_14" d="M84.5849 208.768C86.651 207.456 87.2169 206.95 88.9644 205.137C87.3336 209.74 86.0604 213.793 83.0258 217.664L82.5703 216.844C83.6508 215.724 85.4952 210.654 85.9818 209.023C85.5692 208.503 85.9515 209.109 84.5849 208.768Z" fill="var(--fill-0, #909827)"/>
<path id="Vector_15" d="M78.9553 192.404C79.0853 193.204 79.1932 194.023 79.4241 194.798C80.2646 195.203 80.4413 195.248 81.3506 195.432L80.3193 195.699C79.9361 196.647 80.3163 197.394 80.5972 198.507C86.0393 195.502 86.4153 197.024 91.3736 192.311C89.1103 198.14 87.1223 204.84 81.3162 208.098C80.5593 208.414 78.5735 209.153 78.0688 209.639L77.6798 209.619L77.3914 209.277C77.4627 209.604 77.3927 210.294 77.4022 210.69C76.2427 208.49 76.5168 207.309 76.5702 204.782C76.8047 204.076 76.45 203.354 77.0767 202.146C77.0702 204.351 77.1066 205.351 77.473 207.526C78.688 205.816 79.2228 205.066 79.7203 202.955L79.9971 202.368C79.9614 202.227 79.8957 201.98 79.9092 201.844C80.1339 199.585 77.5777 194.221 78.9553 192.404Z" fill="var(--fill-0, #909827)"/>
<path id="Vector_16" d="M80.6067 200.944C82.3964 200.792 83.8571 199.51 85.4111 198.566C85.0269 199.73 82.7721 205.68 82.6991 206.321L81.4746 207.301L81.3162 208.098C80.5593 208.414 78.5735 209.153 78.0688 209.639L77.6798 209.619L77.3914 209.277C77.4627 209.604 77.3927 210.294 77.4022 210.69C76.2427 208.49 76.5168 207.309 76.5702 204.782C76.8047 204.076 76.45 203.354 77.0767 202.146C77.0702 204.351 77.1066 205.351 77.473 207.526C78.688 205.816 79.2228 205.066 79.7203 202.955L79.9971 202.368L80.431 202.296L80.6067 200.944Z" fill="var(--fill-0, #D8C808)"/>
<path id="Vector_17" d="M76.5702 204.781C76.8047 204.076 76.45 203.354 77.0767 202.146C77.0702 204.351 77.1066 205.351 77.473 207.526C78.688 205.816 79.2228 205.066 79.7203 202.955L79.9971 202.368L80.431 202.296C79.716 205.35 79.0017 206.34 77.3621 209.025C79.0524 208.443 79.9077 208.16 81.4746 207.301L81.3162 208.098C80.5593 208.414 78.5735 209.153 78.0688 209.639L77.6798 209.619L77.3914 209.276C77.4627 209.604 77.3927 210.294 77.4022 210.69C76.2427 208.49 76.5168 207.309 76.5702 204.781Z" fill="var(--fill-0, #909827)"/>
<path id="Vector_18" d="M80.6055 200.944C80.7367 198.618 83.4111 198.994 85.0766 198.093C85.8514 197.674 87.1226 196.088 87.8818 195.98C88.3012 197.929 84.2883 204.811 82.6979 206.321C82.7709 205.68 85.0257 199.73 85.4099 198.566C83.8559 199.51 82.3952 200.792 80.6055 200.944Z" fill="var(--fill-0, #B7BB3F)"/>
<path id="Vector_19" d="M66.3434 192.562C66.9455 193.989 67.3712 194.99 68.1289 196.349L68.6175 197.17C68.8592 200.905 72.6229 200.029 72.5719 204.738L73.1256 207.07C72.6475 208.37 71.9791 210.692 71.1788 211.634C70.661 211.457 70.8076 211.492 70.394 211.033L69.0111 208.97C68.3294 207.756 68.0877 206.586 67.8418 205.249C67.7359 206.203 67.8711 206.417 67.3737 207.072L67.0432 207.16C65.4756 202.606 66.1251 197.386 66.3434 192.562Z" fill="var(--fill-0, #B7BB3F)"/>
<path id="Vector_20" d="M69.2714 200.296C70.5634 202.273 70.9768 202.944 72.5712 204.738L73.1249 207.071C72.6468 208.37 71.9784 210.692 71.178 211.634C70.6603 211.457 70.8068 211.492 70.3932 211.033L69.0104 208.97C69.107 208.303 68.9275 206.683 68.9034 205.832C68.845 203.749 68.9898 202.349 69.2714 200.296Z" fill="var(--fill-0, #D8C808)"/>
<path id="Vector_21" d="M66.3434 192.562C66.9455 193.989 67.3712 194.99 68.1289 196.349C67.4425 198.36 67.4939 203.077 67.8418 205.249C67.7359 206.203 67.8711 206.417 67.3737 207.072L67.0432 207.16C65.4756 202.606 66.1251 197.386 66.3434 192.562Z" fill="var(--fill-0, #909827)"/>
<path id="Vector_22" d="M84.5859 137.152C85.5068 128.907 88.4778 120.071 89.1994 111.639C89.4446 108.772 90.0675 105.115 90.6982 102.334C90.9507 104.008 88.1676 121.166 87.7015 124.112C88.1084 124.817 87.8757 124.646 88.5383 124.845C88.7248 125.517 88.4866 125.895 88.2321 126.564C87.4077 127.295 86.979 131.883 86.9147 133.085C86.6402 138.238 86.6833 143.031 88.7647 147.836C88.3034 147.958 87.8431 148.084 87.3838 148.213L86.3623 146.879L85.687 145.496C84.4951 143.03 84.9478 140.018 85.1607 137.344L84.5859 137.152Z" fill="var(--fill-0, #F6F6E4)"/>
<path id="Vector_23" d="M84.5859 137.152C85.5068 128.907 88.4778 120.071 89.1994 111.639C89.4446 108.772 90.0675 105.115 90.6982 102.334C90.9507 104.008 88.1676 121.166 87.7015 124.112C87.3469 125.87 85.4802 136.646 85.1607 137.344L84.5859 137.152Z" fill="var(--fill-0, #B7BB3F)"/>
<path id="Vector_24" d="M78.8697 191.866L78.9565 192.404C77.5789 194.221 80.1351 199.585 79.9105 201.844C79.8969 201.98 79.9627 202.227 79.9983 202.368L79.7215 202.955C79.224 205.066 78.6892 205.815 77.4742 207.526C77.1078 205.351 77.0714 204.351 77.0779 202.146L77.1949 201.43L76.963 201.257C75.9656 202.131 74.9735 204.549 73.9781 205.726L73.6589 205.566C73.2443 204.355 73.6697 202.182 73.893 200.89C74.4294 198.441 77.092 193.439 78.8697 191.866Z" fill="var(--fill-0, #D8C808)"/>
<path id="Vector_25" d="M78.8672 191.866L78.9541 192.404C77.5765 194.221 80.1327 199.585 79.908 201.844C79.8945 201.98 79.9602 202.227 79.9959 202.368L79.7191 202.955C78.1522 201.73 77.7805 197.276 77.6221 195.401C76.6654 197.092 75.3458 199.681 73.8906 200.89C74.427 198.441 77.0896 193.439 78.8672 191.866Z" fill="var(--fill-0, #B7BB3F)"/>
<path id="Vector_26" d="M77.6178 189.787C76.717 187.793 79.4188 183.727 80.701 182.171C81.0316 183.685 82.1462 189.202 82.8419 190.136C81.7223 192.534 81.4796 193.066 79.4251 194.798C79.1942 194.023 79.0863 193.204 78.9563 192.404L78.8694 191.866C78.7891 190.752 79.1475 189.467 78.8616 188.542C78.2023 188.732 78.113 189.119 77.6178 189.787Z" fill="var(--fill-0, #D8C808)"/>
<path id="Vector_27" d="M90.7873 137.051C91.3738 137.549 92.5494 138.799 93.1038 138.762L93.2376 138.037L94.0706 137.4L94.2186 140.634L94.7916 141.444C94.3113 141.97 93.8946 142.803 93.5877 142.987C92.7818 143.972 92.3067 144.539 91.6552 145.658C91.2072 146.409 90.8199 147.416 90.135 147.612C89.746 147.138 89.7156 146.989 89.4805 146.41C89.752 143.517 89.6283 140.894 90.0753 137.938L90.0933 137.606L90.7873 137.051Z" fill="var(--fill-0, #D8C808)"/>
<path id="Vector_28" d="M90.7901 137.051C91.3767 137.549 92.5522 138.799 93.1066 138.762L93.2404 138.037L94.0734 137.4L94.2215 140.634L94.7945 141.444C94.3141 141.97 93.8975 142.803 93.5905 142.987C90.8363 140.215 91.7421 139.746 90.0781 137.938L90.0962 137.606L90.7901 137.051Z" fill="var(--fill-0, #909827)"/>
<path id="Vector_29" d="M72.3963 195.162C72.4766 193.293 71.2283 187.216 72.9186 186.011L73.6818 186.625L75.6439 188.584C75.7461 190.178 75.8118 190.646 76.1833 192.197C75.2983 193.784 74.2716 195.527 73.5676 197.184C73.1869 196.532 72.7502 195.82 72.3963 195.162Z" fill="var(--fill-0, #D8C808)"/>
<path id="Vector_30" d="M74.582 180.663C75.4286 178.548 75.224 176.45 75.853 174.479L76.2051 174.375C77.0624 174.925 78.1933 176.709 78.8368 177.613C78.9694 179.454 77.3789 183.046 76.386 184.545C75.9333 184.284 75.8901 184.172 75.5679 183.743C75.1942 182.843 74.8669 181.617 74.582 180.663Z" fill="var(--fill-0, #D8C808)"/>
<path id="Vector_31" d="M81.63 162.986L81.8318 162.852L82.0223 162.381C82.5531 162.601 82.7373 162.683 83.2162 162.998C84.1739 164.385 83.9721 164.773 83.764 166.51L83.6757 166.478C82.8693 168.271 81.3875 169.826 80.3673 172.088C80.2075 171.567 79.651 169.624 79.4297 169.259C80.2403 167.542 79.8674 164.625 80.8457 162.625L81.2688 162.486L81.63 162.986Z" fill="var(--fill-0, #D8C808)"/>
<path id="Vector_32" d="M81.6289 162.986L81.8307 162.852L82.0212 162.381C82.552 162.601 82.7362 162.683 83.2151 162.998C84.1728 164.385 83.971 164.773 83.763 166.51L83.6746 166.478C83.2557 165.344 82.1163 165.436 81.6289 162.986Z" fill="var(--fill-0, #B7BB3F)"/>
<path id="Vector_33" d="M82.1909 177.482C81.965 178.821 81.8524 179.571 81.8022 180.956L82.3106 183.12C82.7747 184.458 82.9378 185.173 83.2124 186.53C83.05 187.522 82.989 187.904 83.0076 188.902L82.8392 190.136C82.1435 189.202 81.0289 183.685 80.6984 182.171C79.4161 183.727 76.7144 187.793 77.6151 189.787L77.447 190.364C77.1408 190.661 77.3077 190.617 76.9761 190.642C75.98 186.556 80.1312 180.919 82.1909 177.482Z" fill="var(--fill-0, #B7BB3F)"/>
<path id="Vector_34" d="M86.0315 149.584C86.7924 151.374 87.1596 152.24 88.6308 153.503C88.741 155.918 86.8534 157.941 85.4178 160.156C85.1289 159.284 84.7683 158.067 84.4375 157.243C85.1736 155.14 85.6439 151.851 86.0315 149.584Z" fill="var(--fill-0, #D8C808)"/>
<path id="Vector_35" d="M85.6855 145.496L86.3609 146.879C86.5162 150.994 89.2956 150.563 88.6325 153.503C87.1612 152.241 86.7941 151.374 86.0331 149.585C85.6456 151.852 85.1753 155.14 84.4392 157.243C83.9533 154.912 84.0717 146.91 85.6855 145.496Z" fill="var(--fill-0, #B7BB3F)"/>
<path id="Vector_36" d="M79.4282 169.259C79.0231 167.311 79.1403 159.137 80.6023 157.976L80.9268 158.542L81.2006 158.546C82.1952 159.804 83.1627 161.06 84.2377 162.252L83.2147 162.998C82.7358 162.683 82.5516 162.601 82.0208 162.381L81.8303 162.853L81.6285 162.987L81.2674 162.486L80.8442 162.625C79.8659 164.625 80.2389 167.542 79.4282 169.259Z" fill="var(--fill-0, #909827)"/>
<path id="Vector_37" d="M75.8708 168.97L76.132 169.724C76.1589 172.742 77.6389 173.486 79.2283 175.755C79.0981 176.362 78.9475 177.006 78.8353 177.613C78.1918 176.709 77.0609 174.925 76.2036 174.375L75.8514 174.479C75.2225 176.45 75.427 178.548 74.5805 180.663C74.0504 177.132 74.3599 172.143 75.8708 168.97Z" fill="var(--fill-0, #B7BB3F)"/>
<path id="Vector_38" d="M86.9735 165.901L86.9795 167.224C85.5532 168.075 86.9303 169.391 86.1142 170.634L85.3738 170.521L84.8924 170.428C84.0577 171.086 82.3746 172.959 82.3076 174.036C81.8046 174.588 80.3633 177.08 79.6641 178.042C80.7932 172.251 82.989 170.104 86.9735 165.901Z" fill="var(--fill-0, #B7BB3F)"/>
<path id="Vector_39" d="M84.7303 165.698C84.5825 162.466 88.8493 157.216 91.1187 155.136L91.2306 155.328C91.1089 156.348 90.893 157.711 90.9763 158.705L89.8751 159.47L89.466 159.254C88.4021 159.96 87.8196 160.575 87.4496 161.819L87.5922 162.424C86.1945 163.549 85.8022 164.499 84.7303 165.698Z" fill="var(--fill-0, #B7BB3F)"/>
<path id="Vector_40" d="M71.4143 182.501C72.3361 183.68 72.82 184.321 73.9388 185.342L73.6816 186.625L72.9184 186.011C71.228 187.216 72.4764 193.293 72.3961 195.162C70.6985 192.516 70.6071 185.513 71.4143 182.501Z" fill="var(--fill-0, #B7BB3F)"/>
<path id="Vector_41" d="M88.8191 134.394C89.5205 135.511 89.8543 136.083 90.7872 137.051L90.0933 137.606L90.0752 137.938C89.6282 140.895 89.7519 143.517 89.4804 146.411C88.156 142.527 88.2466 138.427 88.8191 134.394Z" fill="var(--fill-0, #B7BB3F)"/>
<path id="Vector_42" d="M96.6901 142.347L96.495 143.605C96.0792 144.444 96.2391 145.956 96.2647 146.951C95.956 146.746 95.7308 146.298 95.529 145.97L95.0743 145.943C94.3981 146.74 93.2489 148.014 92.7271 148.859C91.9624 149.615 90.885 150.616 90.25 151.445C90.9073 149.091 92.7096 146.753 94.295 144.947C95.0283 144.046 95.8837 143.188 96.6901 142.347Z" fill="var(--fill-0, #B7BB3F)"/>
<path id="Vector_43" d="M90.2498 151.445C90.8847 150.616 91.9622 149.616 92.7269 148.859C92.814 149.844 92.9051 150.246 92.5475 151.17C91.2409 151.84 91.0609 153.102 89.9526 153.591C89.7119 152.835 90.0076 152.237 90.2498 151.445Z" fill="var(--fill-0, #D8C808)"/>
<path id="Vector_44" d="M88.7637 147.835C89.233 148.552 89.7385 149.117 89.6403 149.947C88.5313 150.032 88.0231 149.04 87.3828 148.213C87.8421 148.084 88.3024 147.958 88.7637 147.835Z" fill="var(--fill-0, #E0DDBE)"/>
<path id="Vector_45" d="M41.5352 204.345C43.2395 207.827 46.0206 216.14 47.1909 219.885C53.6011 240.401 59.8938 269.274 58.965 290.883C57.9799 293.923 58.6784 304.614 57.4217 306.911C57.0681 306.956 56.92 306.973 56.5671 307.064C56.092 306.572 56.3011 306.72 55.4548 306.64C54.6785 307.669 53.8292 309.739 53.0909 310.178C52.4012 309.711 52.2192 308.386 52.1427 307.563C51.8011 310.131 51.7818 313.443 51.6402 316.101C51.3704 320.584 51.069 325.066 50.7362 329.546L50.5987 329.529L50.3991 328.078C50.4654 324.697 50.934 320.124 51.1345 316.623C51.5873 309.418 51.7991 302.2 51.7692 294.979C51.7384 283.843 50.4965 273.626 49.5009 262.583C48.5755 252.318 47.9697 241.854 46.6661 231.631C45.4516 222.449 43.7387 213.34 41.5352 204.345Z" fill="var(--fill-0, #909827)"/>
<path id="Vector_46" d="M122.671 111.706L123.046 112.374C121.678 115.215 120.366 118.13 119.164 121.043C115.373 130.22 113.554 139.04 107.527 147.315C104.825 152.402 102.131 157.28 96.1558 159.37C95.1586 159.719 93.3353 159.724 92.5886 160.118L92.169 160.888L92.3901 160.986L92.2681 160.421L92.5083 161.009C93.8596 161.024 98.1292 160.091 99.4634 159.684C101.065 158.814 102.19 158.12 103.709 157.111C101.18 161.696 98.9903 166.355 94.6733 169.501C92.155 171.393 90.8637 171.406 87.8921 172.153C87.7862 172.283 87.6803 172.414 87.5746 172.545L87.6705 172.282L87.5018 172.399C88.3072 172.864 93.0994 171.625 94.2845 171.359C92.7104 174.501 88.2437 171.931 87.2371 175.375C86.8814 178.016 85.2433 180.38 83.3693 182.216L82.3132 183.12L81.8047 180.956L82.7095 180.597C82.0484 178.399 82.2567 176.326 82.3086 174.036C82.3757 172.959 84.0587 171.086 84.8934 170.428L85.3748 170.521L86.1152 170.634C86.9314 169.392 85.5543 168.075 86.9806 167.224L86.9746 165.901C87.1583 164.738 87.3641 163.579 87.5914 162.424L87.4489 161.819C87.8188 160.575 88.4013 159.96 89.4652 159.254L89.8743 159.47L90.9756 158.705C90.8923 157.711 91.1081 156.348 91.2299 155.328L91.8033 155.417C91.851 153.786 92.1346 152.707 92.5497 151.17C92.9074 150.245 92.8163 149.844 92.7292 148.859C93.251 148.014 94.4002 146.74 95.0763 145.943L95.5311 145.969C95.7329 146.298 95.958 146.746 96.2667 146.951C96.2411 145.956 96.0812 144.444 96.4971 143.605C96.7222 143.843 96.7774 143.819 97.1012 143.914C98.3947 143.09 98.8565 141.524 99.424 140.108L100.027 140.687C98.6131 144.072 96.675 144.227 97.1644 147.145C97.4506 147.546 97.6554 147.936 98.1054 148.118L97.5497 148.233L97.312 148.856L97.5452 149.309C99.809 148.841 101.735 148.2 104.076 147.807L105.222 147.285C106.181 146.775 107.131 145.257 107.786 144.394C112.728 137.882 114.153 130.969 117.228 123.669C118.917 119.661 120.873 115.706 122.671 111.706Z" fill="var(--fill-0, #909827)"/>
<path id="Vector_47" d="M122.672 111.706L123.047 112.374C121.679 115.215 120.368 118.13 119.165 121.043C115.374 130.22 113.555 139.04 107.528 147.315L107.183 147.133C105.48 149.389 105.602 150.696 102.866 153.89C101.86 155.064 100.751 156.146 99.5521 157.123C99.1595 157.441 98.1744 158.04 97.9576 158.291L97.7305 158.164C98.3707 156.835 99.1585 157.451 99.5227 155.987L99.6236 155.81C99.7935 154.007 100.647 153.202 101.211 151.529L100.87 150.954C100.984 150.156 101.343 150.019 101.986 149.321C102.742 148.92 103.708 148.544 104.077 147.807L105.223 147.285C106.182 146.775 107.132 145.257 107.787 144.394C112.729 137.882 114.154 130.969 117.229 123.669C118.918 119.661 120.874 115.706 122.672 111.706Z" fill="var(--fill-0, #909827)"/>
<path id="Vector_48" d="M104.074 147.807L105.221 147.285C103.738 150.062 102.002 153.795 99.6211 155.81C99.791 154.007 100.644 153.202 101.209 151.529L100.867 150.954C100.982 150.156 101.341 150.019 101.984 149.321C102.74 148.92 103.705 148.544 104.074 147.807Z" fill="var(--fill-0, #B7BB3F)"/>
<path id="Vector_49" d="M95.0738 145.943L95.5285 145.969C95.7303 146.298 95.9554 146.746 96.2641 146.951C96.559 149.337 96.861 152.024 95.6563 154.282C95.0075 155.405 93.9675 157.266 92.8157 157.809L92.2937 157.762C91.7315 156.961 91.8816 156.538 91.8008 155.417C91.8485 153.786 92.1321 152.707 92.5472 151.17C92.9048 150.245 92.8137 149.844 92.7266 148.859C93.2484 148.014 94.3976 146.74 95.0738 145.943Z" fill="var(--fill-0, #D8C808)"/>
<path id="Vector_50" d="M95.0742 145.943L95.529 145.969C95.7308 146.298 95.9559 146.746 96.2646 146.951C96.5595 149.337 96.8614 152.024 95.6567 154.282C94.4398 152.483 95.6254 147.755 95.0742 145.943Z" fill="var(--fill-0, #B7BB3F)"/>
<path id="Vector_51" d="M99.4636 159.684C101.065 158.813 102.19 158.12 103.71 157.111C101.18 161.695 98.9906 166.355 94.6735 169.501L93.9688 169.013L94.4027 168.67C94.6968 168.106 94.987 167.539 95.2726 166.971C96.0032 165.511 96.8249 164.227 96.3264 162.726C97.1602 161.403 98.2788 160.925 99.5437 159.986L99.4636 159.684Z" fill="var(--fill-0, #909827)"/>
<path id="Vector_52" d="M99.5433 159.986L99.8493 160.341C99.3298 162.329 96.2623 167.657 94.4023 168.67C94.6965 168.106 94.9866 167.539 95.2722 166.971C96.0028 165.511 96.8245 164.227 96.3261 162.726C97.1598 161.403 98.2784 160.925 99.5433 159.986Z" fill="var(--fill-0, #B7BB3F)"/>
<path id="Vector_53" d="M87.6367 171.553C88.1924 170.68 90.1661 168.977 90.4685 168.327C92.6836 163.566 91.445 164.425 96.3248 162.727C96.8232 164.227 96.0015 165.512 95.2709 166.971C94.9853 167.54 94.6952 168.106 94.401 168.67L93.9671 169.013C92.0183 170.794 90.1126 171.042 87.6367 171.553Z" fill="var(--fill-0, #D8C808)"/>
<path id="Vector_54" d="M82.3066 174.037C82.3736 172.959 84.0566 171.086 84.8914 170.428L85.3728 170.521C84.6532 173.421 87.6356 179.349 83.2335 181.178C82.9596 180.967 82.8234 180.916 82.7074 180.597C82.0463 178.399 82.2546 176.326 82.3066 174.037Z" fill="var(--fill-0, #D8C808)"/>
<path id="Vector_55" d="M100.869 150.954L101.21 151.529C100.646 153.202 99.7928 154.007 99.6229 155.81L99.522 155.987C96.8177 158.283 95.9139 158.488 92.5391 159.189C94.8004 156.911 96.4706 155.02 97.0202 151.734C98.4157 151.691 99.5335 151.322 100.869 150.954Z" fill="var(--fill-0, #D8C808)"/>
<path id="Vector_56" d="M87.5895 162.424L87.447 161.819C87.8169 160.575 88.3994 159.96 89.4633 159.253L89.8724 159.47C89.9058 161.054 89.9076 165.949 90.2514 167.191C89.5203 168.281 88.8961 169.57 87.6784 169.857C86.9144 169.078 87.0286 168.387 86.9787 167.224L86.9727 165.901C87.1564 164.738 87.3622 163.579 87.5895 162.424Z" fill="var(--fill-0, #D8C808)"/>
<path id="Vector_57" d="M90.9763 158.705C91.3628 161.69 91.8969 164.463 90.254 167.191C89.9101 165.949 89.9084 161.054 89.875 159.47L90.9763 158.705Z" fill="var(--fill-0, #B7BB3F)"/>
<path id="Vector_58" d="M97.0195 151.734C97.8324 149.323 99.7652 149.54 101.985 149.321C101.342 150.019 100.983 150.156 100.868 150.954C99.5328 151.322 98.415 151.691 97.0195 151.734Z" fill="var(--fill-0, #B7BB3F)"/>
<path id="Vector_59" d="M95.4742 170.721C96.6167 170.275 97.8181 169.306 98.831 168.568C97.0908 171.938 94.9422 176.082 92.3882 178.829L92.3079 179.433L92.6871 179.8L93.5179 179.368C94.0944 180.346 92.4786 183.657 92.013 184.711C90.6188 187.868 88.0182 192.199 84.9141 193.896C83.7494 194.423 82.5492 194.994 81.3523 195.432C80.443 195.248 80.2663 195.203 79.4258 194.798C81.4803 193.066 81.723 192.534 82.8426 190.136L83.011 188.902C82.9924 187.904 83.0534 187.522 83.2158 186.531C82.9412 185.173 82.7781 184.458 82.314 183.12L83.3701 182.216C85.2442 180.38 86.8823 178.016 87.2379 175.375C88.2446 171.931 92.7112 174.501 94.2854 171.359L95.4742 170.721Z" fill="var(--fill-0, #909827)"/>
<path id="Vector_60" d="M94.2824 171.359L95.4713 170.721C94.0603 173.584 92.1125 178.027 89.4644 179.807C88.2542 180.883 85.0184 183.328 83.3672 182.216C85.2412 180.38 86.8794 178.016 87.235 175.375C88.2417 171.931 92.7083 174.501 94.2824 171.359Z" fill="var(--fill-0, #D8C808)"/>
<path id="Vector_61" d="M94.2818 171.359L95.4707 170.721C94.0597 173.584 92.1119 178.027 89.4638 179.807C89.8558 178.542 91.4834 175.576 92.1668 174.207C90.3186 174.842 89.1586 175.14 87.2344 175.375C88.241 171.931 92.7077 174.501 94.2818 171.359Z" fill="var(--fill-0, #B7BB3F)"/>
<path id="Vector_62" d="M84.0382 187.209C85.4337 186.389 86.6087 186.21 88.0308 185.609C87.6721 187.26 87.4324 188.398 86.8012 189.967C86.4622 190.809 85.7667 192.027 85.5966 192.749L84.9904 193.306L84.9141 193.896C83.7494 194.423 82.5492 194.994 81.3523 195.432C80.443 195.248 80.2663 195.203 79.4258 194.798C81.4803 193.066 81.723 192.534 82.8426 190.136L83.011 188.902C83.3571 187.993 83.1985 187.907 83.8897 187.579L84.0382 187.209Z" fill="var(--fill-0, #D8C808)"/>
<path id="Vector_63" d="M83.011 188.902C83.3571 187.992 83.1985 187.907 83.8897 187.579C83.5822 190.452 82.2929 193.13 80.24 195.163C82.0041 194.625 83.3684 194.243 84.9904 193.306L84.9141 193.896C83.7494 194.423 82.5492 194.993 81.3523 195.432C80.443 195.248 80.2663 195.203 79.4258 194.797C81.4803 193.066 81.723 192.534 82.8426 190.136L83.011 188.902Z" fill="var(--fill-0, #909827)"/>
<path id="Vector_64" d="M83.2158 186.53L83.4711 186.57C83.3822 185.953 83.3825 185.577 83.3762 184.961C83.4462 184.928 83.5162 184.895 83.5865 184.863C86.0087 184.445 88.6259 182.456 91.214 182.153C91.3555 182.804 91.2897 182.629 90.9266 183.386C89.7204 186.814 88.6502 190.463 85.5966 192.749C85.7668 192.027 86.4622 190.809 86.8013 189.966C87.4325 188.398 87.6722 187.26 88.0308 185.609C86.6088 186.21 85.4337 186.389 84.0383 187.208L83.8897 187.579C83.1985 187.907 83.3571 187.993 83.011 188.902C82.9925 187.904 83.0534 187.522 83.2158 186.53Z" fill="var(--fill-0, #909827)"/>
<path id="Vector_65" d="M84.0352 187.209L84.1072 186.276C84.6972 185.401 88.5665 183.976 89.7439 183.504L89.9256 183.604C89.254 184.06 88.8115 184.252 88.6689 185.093C88.4084 186.632 87.8939 188.079 87.3832 189.55L87.5523 189.765C89.3395 188.767 89.2151 184.846 90.9235 183.386C89.7173 186.814 88.6471 190.463 85.5935 192.749C85.7636 192.027 86.4591 190.809 86.7982 189.967C87.4294 188.398 87.669 187.26 88.0277 185.609C86.6056 186.21 85.4306 186.389 84.0352 187.209Z" fill="var(--fill-0, #B7BB3F)"/>
<path id="Vector_66" d="M92.6868 179.8C91.7399 181.98 86.436 183.116 84.2613 184.165L84.0515 184.268L83.7578 184.149C84.4026 183.391 88.1198 182.189 89.3819 181.336C90.802 180.375 91.1654 180.023 92.3879 178.829L92.3076 179.433L92.6868 179.8Z" fill="var(--fill-0, #D9DEA0)"/>
<path id="Vector_67" d="M104.985 124.225L105.562 123.733C106.297 124.432 105.433 126.19 106.069 127.394L106.501 127.631L107.473 127.019C106.673 130.49 106.548 132.162 104.712 135.316L107.57 134.245C107.272 134.983 105.65 136.134 104.976 136.446L103.315 136.907C101.889 137.524 101.041 137.736 100.462 139.188C100.388 139.376 100.319 139.566 100.255 139.758L100.025 140.687L99.4225 140.108C98.855 141.523 98.3932 143.09 97.0997 143.914C96.7759 143.819 96.7207 143.843 96.4956 143.605L96.6906 142.346C95.8842 143.188 95.0289 144.046 94.2955 144.947C93.2274 145.049 92.4993 145.017 91.6562 145.657C92.3078 144.539 92.7829 143.971 93.5888 142.987C93.8957 142.803 94.3123 141.97 94.7927 141.444L94.2197 140.634L94.0717 137.4L93.2387 138.037C93.3699 132.235 95.2733 130.345 96.4454 125.099L96.7041 125.62L97.0726 125.607L97.6119 124.356L97.7479 127.191C98.0978 128.666 98.466 130.232 99.3557 131.491C100.739 127.683 102.172 126.715 104.775 123.859L104.985 124.225Z" fill="var(--fill-0, #909827)"/>
<path id="Vector_68" d="M104.985 124.225L105.561 123.733C106.297 124.432 105.432 126.19 106.068 127.394L106.5 127.631L107.472 127.019C106.672 130.49 106.548 132.162 104.712 135.316L107.569 134.245C107.271 134.983 105.649 136.134 104.975 136.446L103.314 136.907L102.98 135.893C102.362 136.379 101.8 136.94 101.027 136.981C100.49 136.466 100.654 136.482 100.607 135.566L100.481 134.85C100.153 133.848 99.9337 132.837 99.6953 131.811C101.347 126.95 103.721 127.169 104.985 124.225Z" fill="var(--fill-0, #909827)"/>
<path id="Vector_69" d="M99.6953 131.812C100.655 130.622 103.803 126.887 105.309 126.901C105.884 128.868 101.727 133.399 100.481 134.85C100.153 133.848 99.9337 132.837 99.6953 131.812Z" fill="var(--fill-0, #D8C808)"/>
<path id="Vector_70" d="M100.609 135.567C101.801 134.164 104.466 130.796 105.684 129.776C105.17 132.572 104.895 133.593 102.983 135.893C102.365 136.379 101.803 136.94 101.03 136.982C100.493 136.466 100.657 136.482 100.609 135.567Z" fill="var(--fill-0, #D8C808)"/>
<path id="Vector_71" d="M98.9554 136.673L99.174 136.699L99.5595 137.066C99.5741 138.093 99.6303 139.102 99.4225 140.108C98.855 141.524 98.3932 143.09 97.0997 143.914C96.7759 143.819 96.7207 143.844 96.4956 143.605L96.6906 142.347C95.8842 143.188 95.0289 144.046 94.2955 144.947C93.2274 145.049 92.4993 145.017 91.6562 145.658C92.3078 144.539 92.7829 143.972 93.5888 142.987C93.8957 142.803 94.3123 141.97 94.7927 141.444C96.2092 139.842 97.8451 138.466 98.9554 136.673Z" fill="var(--fill-0, #909827)"/>
<path id="Vector_72" d="M96.6911 142.347C97.0377 140.039 98.0911 138.733 99.56 137.066C99.5746 138.093 99.6308 139.102 99.423 140.108C98.8555 141.524 98.3937 143.09 97.1002 143.914C96.7764 143.819 96.7212 143.844 96.4961 143.605L96.6911 142.347Z" fill="var(--fill-0, #D8C808)"/>
<path id="Vector_73" d="M94.2188 140.634C94.3638 138.033 95.5037 135.441 96.6555 133.12C97.4077 134.313 98.1739 135.497 98.9544 136.672C97.8441 138.466 96.2082 139.842 94.7917 141.444L94.2188 140.634Z" fill="var(--fill-0, #D8C808)"/>
<path id="Vector_74" d="M97.2009 128.425C97.3638 130.014 97.4004 130.598 97.9508 132.131C98.6254 133.633 99.6313 135.194 99.1766 136.699L98.958 136.672C98.1774 135.497 97.4112 134.313 96.659 133.12C95.5073 135.441 94.3674 138.033 94.2223 140.634L94.0742 137.4C94.083 134.76 96.0637 130.848 97.2009 128.425Z" fill="var(--fill-0, #B7BB3F)"/>
<path id="Vector_75" d="M64.5586 205.641L66.1412 209.121C67.0615 210.259 69.9222 213.49 71.1535 214.068L71.62 214.558L71.6233 215.038C71.5836 216 71.5523 216.975 71.4996 217.935L70.911 218.19C71.4757 220.114 71.799 221.167 72.9075 222.915C72.6239 223.879 72.4016 225.119 71.6516 225.724C70.6146 225.926 70.8897 225.85 69.7746 225.429L69.168 225.801C63.0196 220.03 64.0915 213.29 64.5586 205.641Z" fill="var(--fill-0, #D8C808)"/>
<path id="Vector_76" d="M64.5586 205.641L66.1412 209.121C65.6495 212.259 65.4769 216.133 66.278 219.226C67.119 221.733 67.6044 223.725 69.7746 225.429L69.168 225.801C63.0196 220.03 64.0915 213.29 64.5586 205.641Z" fill="var(--fill-0, #909827)"/>
<path id="Vector_77" d="M66.1431 209.121C67.0634 210.259 69.924 213.49 71.1553 214.067L71.6219 214.557L71.6251 215.038C71.5855 216 71.5541 216.975 71.5014 217.935L70.9129 218.19L70.7206 217.651C70.0234 215.987 67.8801 215.067 67.4291 213.625C65.9169 215.033 67.3242 217.534 66.2798 219.226C65.4787 216.133 65.6514 212.258 66.1431 209.121Z" fill="var(--fill-0, #909827)"/>
<path id="Vector_78" d="M67.4258 213.626L67.9056 213.096C69.8874 213.389 70.7028 215.887 70.7173 217.651C70.0201 215.987 67.8768 215.067 67.4258 213.626Z" fill="var(--fill-0, #B7BB3F)"/>
<path id="Vector_79" d="M108.854 133.388C109.876 132.5 110.878 131.589 111.86 130.655C109.118 138.19 107.012 146.087 98.1042 148.118C97.6542 147.936 97.4494 147.546 97.1633 147.145C96.6739 144.227 98.6119 144.072 100.026 140.687L100.255 139.758C100.319 139.566 100.388 139.376 100.462 139.188C101.041 137.736 101.889 137.524 103.315 136.908L104.976 136.446C105.65 136.134 107.272 134.983 107.571 134.245C107.828 134.005 108.522 133.597 108.854 133.388Z" fill="var(--fill-0, #D8C808)"/>
<path id="Vector_80" d="M108.854 133.388C109.877 132.5 110.879 131.589 111.86 130.655C109.119 138.19 107.013 146.087 98.105 148.118C97.655 147.936 97.4502 147.546 97.1641 147.145C97.5147 147.146 97.865 147.135 98.2149 147.11C100.868 146.906 102.847 144.684 104.483 142.806C104.713 141.292 106.266 138.232 105.697 137.047L104.977 136.446C105.651 136.134 107.273 134.983 107.571 134.245C107.829 134.005 108.523 133.597 108.854 133.388Z" fill="var(--fill-0, #909827)"/>
<path id="Vector_81" d="M107.569 134.245C107.826 134.005 108.521 133.597 108.852 133.388C107.93 136.099 106.562 140.945 104.48 142.806C104.711 141.292 106.264 138.231 105.695 137.046L104.975 136.446C105.649 136.134 107.271 134.983 107.569 134.245Z" fill="var(--fill-0, #B7BB3F)"/>
<path id="Vector_82" d="M104.975 136.446L105.695 137.047C104.11 138.477 102.309 139.234 100.254 139.758C100.318 139.566 100.387 139.376 100.461 139.188C101.04 137.736 101.888 137.524 103.314 136.908L104.975 136.446Z" fill="var(--fill-0, #B7BB3F)"/>
<path id="Vector_83" d="M117.719 92.2607L118.022 92.7843C115.464 98.2187 106.905 120.584 107.553 125.482L108.162 126.14L107.475 127.019L106.504 127.631L106.071 127.394C105.435 126.191 106.3 124.432 105.564 123.733L104.988 124.225L104.777 123.859C107.706 118.961 109.733 111.465 111.72 106.087C113.533 101.177 115.463 96.9783 117.719 92.2607Z" fill="var(--fill-0, #909827)"/>
<path id="Vector_84" d="M105.673 98.293L105.963 98.8195C103.59 103.85 97.6103 119.141 97.6119 124.357L97.0725 125.607L96.7041 125.62L96.4453 125.1C97.2919 117.486 102.452 105.297 105.673 98.293Z" fill="var(--fill-0, #909827)"/>
<path id="Vector_85" d="M94.3448 107.848L94.7057 108.361C92.8369 112.348 90.3369 120.251 88.5352 124.845C88.9146 120.706 92.8163 112.105 94.3448 107.848Z" fill="var(--fill-0, #909827)"/>
<path id="Vector_86" d="M128.342 100.099L128.794 100.297C126.839 103.493 124.975 109.02 123.047 112.374L122.672 111.706C124.457 107.854 126.698 103.813 128.342 100.099Z" fill="var(--fill-0, #B7BB3F)"/>
<path id="Vector_87" d="M67.8416 205.249C68.0875 206.586 68.3292 207.756 69.0109 208.97L70.3938 211.033L69.5645 211.804C68.2527 210.572 67.5168 208.86 67.043 207.16L67.3735 207.072C67.8709 206.418 67.7357 206.203 67.8416 205.249Z" fill="var(--fill-0, #909827)"/>
<path id="Vector_88" d="M112.484 118.168C113.149 116.838 117.461 108.003 118.111 107.569C118.074 108.64 113.571 117.424 112.762 118.655L112.484 118.168Z" fill="var(--fill-0, #E0DDBE)"/>
<path id="Vector_89" d="M99.2876 94.4429C98.0985 99.7176 96.3 103.419 94.7086 108.361L94.3477 107.848C95.6678 104.263 97.7953 97.681 99.2876 94.4429Z" fill="var(--fill-0, #E0DDBE)"/>
<path id="Vector_90" d="M122.777 82.966C123.674 80.6801 126.37 76.8048 128.083 75.0273C128.113 75.4854 123.469 82.8638 123.009 83.4476L122.777 82.966Z" fill="var(--fill-0, #F6F6E4)"/>
<path id="Vector_91" d="M105.676 98.293C106.143 96.9804 110.038 88.8385 110.79 87.7402C110.791 87.8612 110.615 88.0432 110.516 88.1802L110.825 87.7837C110.401 88.4779 110.659 88.4372 110.357 89.1023C108.906 92.3027 107.558 95.6977 105.966 98.8196L105.676 98.293Z" fill="var(--fill-0, #E0DDBE)"/>
<path id="Vector_92" d="M122.778 82.9663L123.01 83.4479C120.856 86.8534 119.839 89.5627 118.022 92.7845L117.719 92.261C118.496 89.9926 121.491 85.0928 122.778 82.9663Z" fill="var(--fill-0, #D9DEA0)"/>
<path id="Vector_93" d="M112.485 118.168L112.763 118.655C111.831 120.18 109.149 125.104 108.16 126.14L107.551 125.482C108.467 124.81 111.884 119.371 112.485 118.168Z" fill="var(--fill-0, #B7BB3F)"/>
<path id="Vector_94" d="M31.5795 229.947C30.8572 226.969 30.105 224.05 30.1461 220.987L30.1743 221.202C30.5156 223.697 31.789 227.464 32.0137 229.768L31.5795 229.947Z" fill="var(--fill-0, #B8B9AB)"/>
<path id="Vector_95" d="M47.6631 431.777C47.6247 433.097 47.6056 434.47 47.5351 435.785L46.9805 431.937L47.6631 431.777Z" fill="var(--fill-0, #B7BB3F)"/>
<path id="Vector_96" d="M128.34 100.099C128.679 99.3724 129.074 98.2993 129.708 97.8887C129.823 98.5733 129.169 99.7062 128.792 100.297L128.34 100.099Z" fill="var(--fill-0, #E0DDBE)"/>
</g>
<defs>
<clipPath id="clip0_0_62">
<rect width="195" height="514" fill="white"/>
</clipPath>
</defs>
</svg>
